<?xml version="1.0" standalone="no"?>
<!DOCTYPE svg PUBLIC "-//W3C//DTD SVG 20010904//EN"
 "http://www.w3.org/TR/2001/REC-SVG-20010904/DTD/svg10.dtd">
<svg version="1.0" xmlns="http://www.w3.org/2000/svg"
 width="1280.000000pt" height="1280.000000pt" viewBox="0 0 1280.000000 1280.000000"
 preserveAspectRatio="xMidYMid meet">

<g transform="translate(0.000000,1280.000000) scale(0.100000,-0.100000)"
fill="#000000" stroke="none">
<path d="M2040 9284 c-126 -19 -178 -29 -262 -55 -197 -60 -350 -149 -462
-270 -73 -79 -138 -196 -155 -281 -8 -38 -11 -704 -9 -2308 l3 -2255 24 -60
c104 -263 378 -451 766 -526 103 -20 8805 -21 8910 -1 387 74 671 271 766 532
l24 65 0 2275 c0 2207 -1 2277 -19 2329 -77 221 -291 403 -586 496 -47 14
-119 34 -160 43 -70 16 -390 17 -4445 18 -2403 1 -4381 0 -4395 -2z m8650
-227 c116 -22 274 -74 368 -121 147 -74 283 -199 342 -316 53 -104 50 28 50
-2220 0 -2248 3 -2116 -50 -2220 -59 -117 -195 -242 -342 -316 -93 -47 -251
-99 -368 -121 -91 -17 -284 -18 -4285 -18 -3984 0 -4195 1 -4290 18 -116 21
-276 72 -367 118 -229 116 -366 280 -399 479 -5 32 -9 908 -9 2065 0 2180 -2
2078 54 2201 112 244 451 431 839 464 51 4 1953 7 4227 6 3917 -1 4140 -2
4230 -19z"/>
<path d="M3895 8504 c-271 -19 -501 -64 -790 -154 -235 -73 -351 -145 -431
-269 l-38 -59 -79 -15 c-111 -22 -289 -110 -344 -170 -51 -55 -70 -115 -55
-170 9 -35 7 -41 -19 -70 -70 -76 -91 -195 -49 -276 19 -38 19 -39 -1 -77 -16
-31 -20 -53 -17 -106 2 -38 0 -68 -3 -68 -20 0 -70 -56 -80 -91 -7 -22 -18
-39 -27 -39 -7 0 -29 -7 -47 -16 -112 -53 -215 -231 -215 -373 0 -73 12 -113
56 -184 l36 -59 -28 -56 c-26 -50 -29 -67 -28 -142 2 -155 86 -409 188 -564
124 -191 497 -512 781 -671 96 -54 260 -137 320 -162 263 -109 346 -140 555
-201 275 -81 513 -132 870 -186 293 -44 502 -46 620 -7 235 78 401 238 486
467 l26 71 75 7 c118 10 191 57 246 160 18 34 22 58 23 144 l0 103 39 22 c45
25 85 79 85 114 0 19 11 28 58 49 31 14 70 37 86 52 62 58 82 155 51 243 -16
43 -15 44 7 59 45 28 98 94 109 134 21 79 -9 175 -87 278 l-45 60 17 50 c49
150 -34 568 -173 871 -127 275 -264 469 -479 677 -349 338 -793 546 -1289 605
-132 15 -332 25 -410 19z m415 -108 c172 -28 327 -68 496 -130 141 -51 411
-201 514 -285 25 -20 61 -48 80 -62 48 -36 205 -191 262 -259 209 -249 360
-543 438 -858 42 -170 52 -236 54 -337 1 -102 -13 -138 -68 -171 -28 -17 -51
-19 -216 -18 -154 1 -209 6 -329 28 -148 28 -313 66 -391 92 -25 8 -72 23
-105 33 -568 183 -1257 570 -1750 986 -102 86 -291 270 -367 358 -32 38 -84
107 -115 153 -63 95 -63 92 2 165 143 161 369 248 805 309 172 24 527 22 690
-4z m-1673 -482 c13 -4 35 -28 53 -61 17 -30 57 -82 88 -114 l58 -59 -57 -30
c-114 -61 -205 -177 -217 -276 -4 -36 1 -57 28 -110 64 -131 195 -232 370
-284 93 -28 133 -56 195 -139 151 -202 203 -231 409 -231 170 0 212 -21 268
-133 l24 -48 -38 -39 c-23 -25 -40 -54 -44 -77 -8 -50 -30 -83 -54 -83 -25 0
-50 37 -50 73 0 75 -60 137 -133 137 -32 0 -45 -7 -82 -46 -25 -25 -45 -49
-45 -53 0 -4 -11 -13 -25 -19 -20 -9 -33 -9 -60 2 -51 21 -66 54 -74 155 -9
100 -22 127 -73 155 -46 25 -71 17 -136 -39 -30 -25 -62 -45 -73 -45 -30 0
-98 68 -108 109 -5 20 -12 76 -15 125 -7 96 -26 143 -73 173 -22 15 -29 14
-83 -2 -51 -15 -63 -16 -91 -5 -54 23 -89 60 -120 129 -39 86 -79 127 -145
146 -59 17 -113 66 -145 133 -17 34 -20 56 -17 103 5 75 27 105 102 143 50 25
57 32 54 55 -2 19 -14 32 -43 47 -49 25 -55 51 -21 91 36 43 211 106 341 122
6 0 20 -2 32 -5z m218 -295 c-5 -13 -3 -19 3 -15 14 8 30 -15 27 -41 -1 -18 1
-20 11 -12 10 8 11 17 4 29 -9 17 -4 30 12 30 4 0 8 -7 8 -17 0 -9 3 -13 7
-10 10 11 52 -33 46 -48 -7 -21 -35 -6 -28 15 3 10 1 21 -5 25 -5 3 -10 2 -10
-4 0 -6 -10 -20 -22 -32 l-23 -21 23 11 c22 11 33 -1 12 -14 -5 -3 -10 -11
-10 -17 0 -6 9 -3 19 6 11 10 25 15 31 11 7 -4 16 -2 20 6 7 10 18 3 47 -27
21 -21 56 -54 78 -71 22 -18 34 -33 27 -33 -7 0 -10 -5 -6 -12 4 -7 3 -8 -5
-4 -6 4 -9 12 -6 17 3 5 -1 6 -9 3 -16 -6 -40 28 -28 40 3 4 -2 4 -11 0 -17
-6 -16 -9 5 -32 18 -19 19 -24 6 -19 -10 3 -20 1 -24 -5 -4 -6 -3 -8 4 -4 6 3
13 2 17 -4 7 -11 55 -10 71 2 16 12 55 -34 44 -52 -5 -8 -12 -11 -17 -7 -4 5
-1 12 6 16 9 6 10 11 2 15 -6 4 -11 1 -11 -6 0 -9 -3 -9 -8 -2 -16 24 -38 11
-39 -23 -1 -27 2 -33 14 -29 8 4 27 9 41 12 21 4 24 3 12 -5 -10 -7 -11 -11
-2 -11 6 0 12 -7 12 -16 0 -8 4 -13 9 -9 5 3 9 19 9 35 -1 16 -5 27 -10 24 -4
-3 -8 -3 -8 0 0 16 20 13 36 -6 11 -12 13 -18 5 -13 -10 5 -12 4 -7 -4 4 -6
11 -9 15 -6 10 6 117 -74 114 -85 -2 -5 5 -6 15 -3 15 6 15 5 2 -11 -22 -28
-22 -48 1 -36 24 13 25 21 2 13 -14 -5 -15 -3 -6 7 9 10 17 9 42 -6 21 -12 27
-20 18 -26 -7 -4 -15 0 -19 10 -7 15 -8 15 -5 -1 1 -10 7 -18 12 -18 18 -1 35
-21 27 -33 -12 -19 -9 -53 5 -53 7 0 13 5 13 11 0 6 4 5 9 -3 6 -9 10 -10 16
-2 5 9 10 9 20 1 17 -14 36 -4 29 14 -6 16 -44 29 -41 14 1 -6 -4 -13 -12 -16
-10 -3 -11 0 -5 9 6 12 5 12 -8 1 -12 -9 -18 -10 -23 -2 -8 13 -9 12 28 28 16
7 27 8 27 2 0 -6 6 -10 13 -10 6 -1 26 -12 42 -25 25 -21 28 -27 15 -35 -12
-8 -9 -10 13 -10 28 0 34 -9 17 -26 -6 -6 -6 -15 0 -24 8 -12 10 -12 10 -1 0
11 3 11 18 0 16 -13 16 -13 2 5 -14 18 -13 19 4 13 14 -6 17 -4 12 9 -4 11 3
9 25 -8 17 -13 42 -30 55 -39 13 -9 21 -19 16 -24 -4 -4 1 -5 12 -1 13 5 17 2
13 -9 -4 -8 -1 -17 5 -21 7 -4 8 -3 4 4 -11 18 20 15 38 -4 9 -8 16 -13 16 -9
0 3 9 1 20 -5 11 -6 20 -16 20 -23 0 -9 -2 -9 -8 -1 -5 9 -10 8 -19 -2 -8 -8
-9 -15 -3 -19 6 -3 10 -1 10 5 0 6 5 8 11 4 6 -3 15 -1 19 6 6 9 13 7 28 -8
11 -11 23 -18 26 -15 3 4 14 -1 23 -9 10 -8 26 -18 36 -21 17 -6 24 -27 9 -27
-5 0 -9 -7 -9 -15 0 -11 4 -12 10 -6 7 7 16 7 26 -2 14 -11 14 -10 2 6 -8 9
-11 20 -8 24 4 3 11 -7 18 -23 6 -16 15 -37 20 -46 13 -25 11 -32 -4 -22 -7 5
-6 2 3 -6 13 -13 19 -45 20 -115 1 -15 3 -17 10 -6 4 8 6 20 3 28 -3 7 0 13 7
13 8 0 10 -9 6 -26 -5 -17 -3 -23 4 -19 6 4 10 -6 10 -24 0 -37 -13 -40 -36
-8 -16 21 -15 15 3 -30 4 -10 2 -14 -4 -10 -10 7 -28 -19 -25 -35 1 -5 -5 -8
-14 -8 -8 0 -12 5 -9 10 8 13 -1 13 -25 -2 -16 -11 -22 -9 -35 7 -9 11 -13 14
-9 6 4 -9 2 -12 -7 -9 -8 3 -13 11 -11 17 1 7 -2 9 -9 5 -7 -4 -18 1 -25 10
-7 10 -15 17 -18 17 -3 -1 -5 2 -4 7 2 4 5 6 8 5 3 -1 7 7 7 18 1 10 -4 19
-12 19 -7 0 -22 3 -32 6 -15 5 -15 4 -3 -5 8 -6 10 -11 4 -11 -6 0 -19 9 -29
20 -15 17 -16 22 -4 37 11 15 11 16 -1 6 -19 -17 -50 10 -43 38 4 16 23 28 23
15 0 -2 3 -12 7 -22 5 -14 3 -16 -13 -10 -15 6 -17 5 -6 -5 9 -10 15 -10 23
-2 9 9 8 18 -5 37 -15 24 -45 39 -31 16 3 -5 1 -10 -5 -10 -6 0 -8 -5 -5 -11
4 -6 -2 -5 -14 3 -12 7 -21 16 -21 19 0 4 -14 9 -31 13 -27 5 -33 26 -8 26 6
0 7 -5 4 -11 -4 -6 3 -5 14 3 18 10 19 14 6 16 -9 2 -28 -1 -44 -6 -20 -7
-225 -1 -258 7 -1 1 0 7 3 15 7 18 -45 78 -62 72 -9 -3 -14 2 -14 14 0 11 -2
20 -4 20 -2 0 -13 3 -23 7 -17 6 -17 5 1 -15 15 -17 16 -24 7 -36 -7 -8 -10
-21 -6 -28 4 -7 -3 -2 -14 11 -12 13 -21 20 -21 15 0 -4 -18 10 -40 32 -22 21
-40 44 -40 50 0 6 -10 19 -22 27 -19 13 -20 16 -6 16 20 1 43 -21 64 -60 8
-16 19 -27 24 -24 7 4 7 13 0 24 -5 10 -6 21 -2 25 3 4 -1 4 -11 0 -11 -4 -17
-1 -17 9 0 8 -13 21 -29 28 -22 10 -27 17 -20 26 8 9 5 11 -10 10 -11 0 -17
-5 -15 -9 3 -4 3 -8 0 -8 -10 0 -111 105 -108 113 1 4 -3 7 -10 6 -7 -1 -26 3
-41 9 -16 7 -45 12 -65 13 -50 1 -88 13 -84 27 3 16 -11 15 -27 0 -11 -11 -12
-10 -6 0 5 9 2 12 -8 10 -9 -2 -16 0 -16 5 -1 9 -39 47 -48 47 -3 0 2 -9 12
-20 38 -42 -3 -18 -49 29 -45 45 -47 49 -27 56 24 7 28 33 7 41 -8 3 -12 14
-8 27 3 12 1 19 -3 15 -4 -4 -9 -21 -11 -39 -3 -27 -2 -30 11 -19 13 11 14 10
9 -4 -6 -16 -25 -21 -37 -9 -4 3 -2 12 4 19 8 9 4 17 -15 29 -20 13 -26 26
-26 51 0 19 5 34 11 34 5 0 8 4 5 9 -4 5 2 8 11 7 9 -2 19 -9 21 -16 3 -7 0
-10 -7 -6 -6 4 -11 3 -11 -2 0 -14 58 -12 63 2 7 18 -8 42 -17 27 -4 -6 -4
-17 -1 -23 4 -7 -5 -1 -18 14 -14 15 -28 24 -33 20 -4 -4 5 10 21 31 21 29 30
35 37 25 6 -9 7 -6 3 8 -6 22 46 99 59 87 10 -10 7 -25 -4 -18 -6 4 -7 -1 -3
-11 4 -11 8 -13 11 -6 2 7 8 10 13 7 5 -4 6 1 3 9 -3 9 -1 16 5 16 6 0 11 7
11 16 0 14 -3 14 -15 4 -8 -7 -15 -8 -15 -3 0 8 65 60 78 62 2 1 0 -9 -3 -20z
m49 -1 c-3 -4 -12 -8 -20 -8 -8 0 -13 4 -10 8 3 5 12 9 20 9 8 0 13 -4 10 -9z
m260 -317 c-6 -6 -24 19 -24 34 1 6 7 1 15 -9 8 -11 12 -22 9 -25z m-904 -106
c18 -13 56 -31 85 -40 52 -15 75 -40 75 -83 0 -30 99 -151 146 -178 36 -21 58
-26 120 -28 64 -1 77 -4 87 -21 18 -29 24 -63 26 -125 2 -110 41 -179 124
-221 49 -26 76 -20 130 30 49 44 70 53 102 45 29 -7 42 -40 50 -131 12 -127
66 -198 149 -198 39 0 49 6 116 68 40 37 79 67 86 67 20 0 41 -38 59 -110 23
-89 49 -130 83 -130 36 1 61 23 111 98 23 34 44 62 46 62 3 0 22 -19 42 -41
67 -75 139 -107 283 -129 111 -17 131 -26 184 -79 l48 -49 -27 -18 c-17 -11
-52 -20 -89 -22 -60 -4 -62 -3 -114 42 -59 51 -70 53 -182 35 -60 -10 -76 -9
-122 6 -38 13 -76 17 -138 15 -220 -8 -253 -6 -320 20 -217 81 -457 259 -890
660 -63 58 -140 128 -170 156 -30 27 -59 54 -66 59 -6 6 -27 24 -47 42 -55 48
-77 90 -77 149 0 77 29 94 90 49z m1221 -78 c-1 -12 -15 -9 -19 4 -3 6 1 10 8
8 6 -3 11 -8 11 -12z m49 -57 c0 -5 -2 -10 -4 -10 -3 0 -8 5 -11 10 -3 6 -1
10 4 10 6 0 11 -4 11 -10z m110 -54 c0 -2 -8 -10 -17 -17 -16 -13 -17 -12 -4
4 13 16 21 21 21 13z m-1482 -27 c2 -5 7 -7 12 -4 4 3 13 -2 20 -9 9 -12 7
-17 -10 -26 -13 -7 -19 -18 -16 -26 3 -8 0 -14 -7 -14 -7 0 -4 -5 5 -11 9 -5
15 -16 12 -23 -3 -7 3 -16 13 -20 13 -5 14 -9 5 -15 -7 -4 -10 -15 -6 -24 9
-24 23 -21 17 3 -3 11 0 20 6 20 10 0 16 -21 12 -43 -1 -5 3 -6 8 -2 6 3 25
-8 43 -24 26 -24 31 -32 21 -42 -16 -16 -17 -29 -2 -29 5 0 7 4 4 10 -3 6 1 7
10 4 14 -6 14 -8 -1 -19 -14 -10 -14 -12 -1 -12 15 0 55 57 40 57 -10 0 19 20
30 20 4 0 7 -5 7 -11 0 -5 -4 -7 -10 -4 -5 3 -10 1 -10 -5 0 -7 7 -10 15 -6 8
3 15 1 15 -5 0 -6 7 -9 15 -5 8 3 15 1 15 -4 0 -5 7 -16 16 -25 9 -9 13 -19 9
-23 -4 -4 -15 3 -25 16 -18 22 -19 22 -17 2 1 -23 26 -34 52 -24 14 6 16 4 10
-6 -6 -9 -4 -11 4 -6 7 5 21 0 32 -10 18 -16 19 -16 19 6 0 16 -4 20 -16 16
-10 -4 -13 -2 -8 6 4 7 3 8 -4 4 -7 -4 -10 -2 -9 6 2 7 2 10 0 6 -7 -13 -23
-9 -19 5 1 6 1 8 -2 4 -7 -13 -32 14 -32 35 0 16 -3 18 -13 9 -14 -11 -27 -5
-27 12 0 5 7 6 16 3 9 -3 12 -2 9 5 -4 6 -14 8 -24 4 -13 -5 -13 -4 -4 6 10
10 17 9 33 -6 11 -10 20 -26 20 -37 0 -10 5 -18 11 -18 5 0 7 5 3 12 -14 22
22 -7 178 -144 18 -16 36 -28 41 -28 5 0 -1 -8 -14 -18 -17 -15 -19 -21 -9
-27 8 -5 11 -4 7 2 -4 6 2 13 13 16 11 3 20 1 20 -5 0 -5 5 -6 10 -3 6 3 10
-1 10 -10 0 -9 4 -14 9 -11 4 3 16 -3 25 -13 17 -18 16 -20 -1 -30 -11 -6 -13
-11 -5 -11 7 0 10 -5 7 -10 -4 -6 -11 -7 -17 -4 -7 4 -8 2 -4 -4 5 -9 12 -8
26 0 14 9 16 14 7 20 -9 6 -9 8 1 8 25 0 27 -1 24 -20 -3 -18 11 -33 36 -36 6
-1 12 3 12 9 0 7 5 4 11 -6 6 -9 14 -15 19 -12 5 3 12 1 15 -5 4 -6 1 -9 -7
-8 -7 2 -12 -3 -10 -10 1 -8 -2 -11 -7 -7 -6 3 -19 -3 -30 -14 -11 -11 -22
-17 -25 -14 -3 3 -3 -4 -1 -17 3 -18 2 -20 -10 -10 -8 7 -15 22 -15 34 0 12
-5 27 -11 33 -7 7 -2 9 18 5 26 -5 27 -4 11 11 -9 10 -23 17 -32 17 -20 0 -25
-32 -7 -46 8 -6 11 -16 6 -24 -6 -10 -10 -9 -17 4 -5 9 -13 14 -18 11 -4 -3
-7 6 -5 20 2 20 0 23 -11 14 -8 -6 -11 -16 -8 -21 3 -5 -3 -4 -15 4 -24 15
-26 24 -9 34 6 4 8 3 4 -4 -3 -6 -2 -13 4 -17 5 -3 10 0 10 9 0 8 6 16 13 19
6 2 -4 4 -25 4 -28 0 -35 -4 -30 -15 6 -17 -3 -13 -51 22 -29 21 -22 36 21 36
12 0 22 4 22 9 0 5 -9 7 -20 4 -14 -4 -20 0 -20 11 0 17 -20 18 -32 1 -5 -7
-11 -6 -15 1 -5 5 -18 10 -30 10 -17 0 -19 -3 -11 -14 8 -9 13 -10 18 -1 6 8
9 8 15 0 3 -7 15 -9 26 -6 10 4 19 2 19 -3 0 -16 -31 -23 -46 -11 -8 6 -14 9
-14 6 0 -4 -16 5 -36 18 -20 14 -40 25 -43 25 -4 0 -14 13 -24 29 -13 22 -14
31 -5 35 7 2 -4 2 -25 0 -28 -4 -37 -2 -35 8 2 7 -4 12 -12 10 -8 -2 -12 -1
-9 3 4 3 -4 18 -17 32 -14 15 -22 33 -19 40 2 8 1 12 -4 9 -4 -3 -18 15 -30
39 -12 24 -27 46 -34 48 -7 2 -9 8 -5 11 3 4 16 -2 27 -13 12 -12 21 -17 21
-12 0 13 -41 41 -51 36 -4 -3 -21 8 -37 25 -17 16 -35 30 -41 30 -6 0 -11 5
-11 10 0 6 -5 10 -11 10 -19 0 -61 51 -65 79 -4 24 -3 24 10 9 17 -22 26 -23
26 -1 0 9 -3 13 -7 10 -11 -11 -32 13 -26 30 11 29 81 38 91 12z m58 -46 c-4
-5 -12 -8 -18 -8 -6 0 -12 -8 -14 -17 -3 -23 1 -23 27 3 l21 21 43 -42 c32
-31 41 -47 37 -63 -5 -19 -3 -20 11 -9 23 20 38 6 32 -31 -4 -22 -2 -28 4 -17
5 8 7 18 5 22 -3 4 0 8 5 8 17 0 13 -37 -4 -43 -14 -6 -28 7 -31 31 -1 6 2 12
7 12 6 0 7 5 4 10 -9 15 -27 1 -21 -16 3 -8 2 -14 -3 -14 -5 0 -11 9 -14 20
-4 17 -11 19 -31 14 -17 -4 -26 -2 -26 6 0 6 -3 9 -8 7 -4 -3 -21 6 -37 19
-19 15 -24 24 -15 24 13 0 13 2 1 9 -19 12 -23 43 -8 53 16 10 43 10 33 1z
m-196 -81 c15 -16 34 -49 40 -73 34 -125 87 -218 213 -369 162 -195 494 -496
682 -619 91 -60 105 -67 200 -106 168 -70 309 -135 328 -152 11 -10 35 -50 54
-90 36 -76 76 -118 146 -155 61 -33 189 -32 270 1 82 34 118 21 217 -73 92
-88 107 -98 192 -121 55 -15 91 -17 190 -12 185 8 207 21 273 163 74 157 115
173 285 112 47 -17 112 -34 145 -38 33 -4 82 -15 109 -24 66 -22 160 -20 212
3 96 43 186 35 226 -21 16 -23 23 -50 26 -94 10 -156 -101 -242 -280 -214
-130 19 -176 15 -247 -20 -87 -43 -140 -39 -248 21 -145 81 -233 56 -323 -90
-54 -87 -97 -121 -155 -121 -64 1 -115 31 -222 132 -55 52 -122 105 -149 118
-58 29 -143 31 -223 7 -76 -24 -177 -22 -246 4 -41 15 -79 43 -143 102 -94 88
-124 104 -242 132 -120 29 -164 64 -240 195 -74 126 -151 180 -308 211 -176
36 -250 87 -343 232 -96 150 -138 188 -327 290 -159 86 -223 140 -288 243 -76
124 -87 168 -59 261 20 67 64 130 115 164 54 36 84 37 120 1z m241 -52 c13 -7
19 -7 19 0 0 5 5 10 11 10 6 0 9 -6 6 -12 -2 -7 8 -24 22 -37 14 -13 20 -20
14 -17 -7 4 -13 3 -13 -3 0 -5 6 -11 12 -13 7 -3 3 -7 -8 -10 -17 -4 -20 -2
-17 12 4 13 -7 26 -36 46 -23 14 -41 28 -41 30 0 7 11 4 31 -6z m1142 -22 c17
-19 20 -48 5 -48 -8 0 -24 7 -37 16 -17 13 -20 19 -10 25 7 4 17 5 22 2 5 -3
4 -9 -3 -13 -8 -5 -8 -9 3 -13 8 -3 14 0 13 6 -3 25 -17 35 -38 29 -14 -3 -19
-1 -14 6 8 13 42 8 59 -10z m-1195 -66 c17 -20 35 -55 41 -77 19 -72 104 -140
409 -327 260 -159 291 -180 413 -280 159 -129 242 -180 366 -222 38 -13 124
-51 193 -83 166 -79 183 -87 265 -118 39 -15 93 -36 120 -47 186 -72 179 -71
470 -78 246 -6 276 -9 338 -30 l69 -24 -34 -17 c-45 -23 -71 -55 -92 -111 -19
-53 -59 -91 -126 -122 -36 -17 -64 -21 -145 -20 -88 0 -107 4 -158 28 -35 17
-86 57 -131 101 -130 129 -212 148 -294 68 -29 -29 -71 -38 -144 -34 -59 3
-127 95 -128 173 0 37 -39 98 -63 98 -5 0 -74 32 -151 70 -78 39 -168 77 -201
86 -111 28 -278 124 -440 253 -199 159 -468 421 -584 572 -63 81 -71 96 -71
135 0 40 2 44 24 44 16 0 34 -13 54 -38z m2013 -25 c350 -182 859 -365 1237
-443 253 -52 558 -78 652 -55 l45 11 43 -48 c54 -60 82 -117 82 -169 0 -34 -6
-46 -31 -67 -41 -35 -74 -33 -155 9 -86 45 -126 51 -184 30 -106 -39 -136 -44
-188 -30 -61 15 -139 57 -190 100 -77 66 -137 80 -222 50 -62 -22 -136 -19
-176 6 -19 11 -34 25 -34 30 0 5 -17 20 -37 33 -31 19 -57 25 -134 30 -114 8
-172 22 -259 64 -36 17 -87 34 -115 38 -63 8 -144 45 -215 97 -71 53 -83 68
-125 152 -28 57 -71 195 -61 195 2 0 32 -15 67 -33z m-111 -71 c0 -3 -4 -8
-10 -11 -5 -3 -10 -1 -10 4 0 6 5 11 10 11 6 0 10 -2 10 -4z m-215 -86 c-3 -5
-12 -10 -18 -10 -7 0 -6 4 3 10 19 12 23 12 15 0z m205 -64 c0 -3 -4 -8 -10
-11 -5 -3 -10 -1 -10 4 0 6 5 11 10 11 6 0 10 -2 10 -4z m-1287 -62 c-4 -10
-9 -12 -15 -6 -12 12 -1 35 12 27 5 -3 6 -13 3 -21z m140 -96 c29 -24 54 -46
55 -51 2 -4 8 -5 12 -2 5 3 14 -4 20 -15 6 -11 15 -18 20 -15 5 3 11 1 14 -3
3 -5 -18 -9 -47 -9 -41 -1 -47 1 -29 8 13 5 29 6 35 3 7 -3 3 2 -8 11 -12 9
-21 11 -23 5 -2 -5 -9 -10 -16 -10 -7 0 -17 -12 -24 -27 -9 -22 -11 -23 -8 -5
2 12 0 20 -5 16 -5 -3 -9 0 -9 5 0 6 -5 11 -11 11 -8 0 -8 -5 1 -15 17 -21 3
-19 -26 4 -13 10 -20 21 -16 25 3 4 -1 4 -10 1 -15 -6 -17 -1 -13 35 4 35 2
40 -10 30 -8 -6 -19 -9 -25 -5 -5 3 -10 2 -10 -4 0 -5 5 -11 12 -13 6 -2 12
-12 14 -21 1 -9 -2 -15 -7 -11 -5 3 -7 10 -4 15 4 5 -1 9 -9 9 -21 0 -20 24 0
44 10 11 21 13 32 7 9 -4 22 -7 27 -5 6 2 15 -12 21 -31 6 -19 7 -35 3 -35 -5
0 -9 5 -9 12 0 6 -2 9 -5 7 -2 -3 -2 -15 2 -28 4 -15 8 -19 13 -11 5 9 13 9
26 2 20 -11 67 5 58 20 -3 4 -12 2 -20 -6 -8 -9 -20 -13 -27 -10 -16 6 -40 61
-33 73 4 5 -6 14 -21 19 -19 7 -22 11 -10 11 10 1 42 -18 70 -41z m-1020 -97
c31 -22 93 -71 138 -109 45 -39 94 -76 108 -83 98 -50 130 -78 183 -166 91
-151 193 -235 336 -279 26 -7 56 -14 68 -14 91 0 203 -76 258 -175 50 -88 124
-166 188 -197 29 -14 91 -34 138 -44 85 -18 85 -19 171 -100 48 -45 102 -89
120 -98 113 -58 231 -70 358 -36 41 11 85 20 98 20 47 0 95 -31 191 -123 118
-112 169 -140 270 -145 118 -7 173 26 252 149 71 111 102 122 186 69 116 -73
227 -83 341 -31 54 25 78 31 102 26 17 -4 31 -12 31 -18 0 -6 -18 -47 -40 -92
-86 -179 -223 -294 -414 -349 -98 -29 -360 -19 -606 23 -30 6 -89 15 -130 22
-409 64 -851 186 -1195 329 -504 210 -936 528 -1089 802 -73 132 -151 377
-163 514 -6 75 9 144 31 144 7 0 38 -18 69 -39z m1118 -19 c-5 -2 -8 -9 -5
-17 3 -7 0 -16 -7 -21 -7 -4 -10 -3 -5 4 3 6 2 13 -2 16 -5 3 -8 -5 -7 -17 4
-32 4 -33 14 -18 5 8 17 15 28 16 10 0 18 5 18 10 0 6 -5 9 -12 7 -7 -2 -10 3
-7 12 8 21 48 13 91 -20 21 -15 40 -32 41 -36 2 -5 8 -6 13 -2 5 3 12 -2 15
-10 3 -9 10 -13 15 -10 5 3 12 -1 15 -9 3 -8 17 -17 32 -20 15 -3 44 -17 64
-30 20 -14 40 -22 44 -19 4 4 3 1 -1 -7 -6 -11 -4 -13 8 -8 10 3 17 2 17 -4 0
-6 4 -8 9 -5 11 7 74 -18 65 -26 -3 -4 14 -4 38 -1 40 6 42 5 29 -11 -13 -16
-12 -17 10 -15 13 1 40 1 59 -1 34 -2 33 -3 -13 -11 -32 -7 -54 -6 -68 2 -11
6 -23 8 -27 5 -12 -13 12 -21 59 -20 39 0 46 -2 38 -13 -9 -10 -8 -13 4 -13 8
0 17 7 21 15 3 8 10 15 16 15 6 0 17 6 25 13 11 11 8 14 -16 14 -16 0 -35 5
-42 12 -10 10 -4 12 25 10 20 -2 40 0 44 4 4 4 14 7 22 7 12 0 12 -2 1 -17
-13 -15 -12 -15 8 -5 29 16 33 15 27 -5 -5 -14 -4 -15 4 -4 12 17 239 19 270
2 30 -16 40 -13 17 6 -17 14 -18 15 -2 9 10 -3 27 -1 38 5 14 7 24 7 33 0 7
-6 15 -9 17 -6 3 2 6 -7 7 -20 2 -27 1 -28 -24 -18 -16 6 -16 7 -1 12 15 6 15
7 -1 18 -13 7 -23 8 -33 1 -11 -8 -10 -9 4 -4 11 3 17 1 16 -7 -4 -30 2 -35
31 -32 25 3 33 0 40 -20 5 -14 12 -25 15 -25 11 0 -7 45 -21 53 -8 4 -14 15
-14 23 0 8 5 12 10 9 6 -4 8 -10 5 -15 -3 -4 4 -10 15 -13 11 -3 20 -14 20
-25 0 -11 7 -25 15 -32 18 -15 20 1 3 18 -6 6 -8 15 -3 19 4 5 10 2 12 -5 3
-6 9 -9 14 -6 6 3 16 0 24 -6 11 -9 27 -7 71 10 32 11 63 19 71 16 7 -3 13 0
13 7 0 7 5 4 11 -6 7 -13 14 -15 23 -8 15 12 28 3 44 -29 l11 -25 -5 26 c-7
32 18 46 41 23 8 -9 15 -13 15 -10 0 4 18 -3 40 -14 23 -12 38 -25 35 -30 -11
-17 -37 -11 -42 10 -5 19 -16 25 -38 20 -5 -1 -15 7 -22 16 -11 15 -13 15 -13
2 0 -20 23 -39 41 -35 8 2 11 2 7 0 -19 -11 24 -35 51 -30 26 5 28 4 25 -16
-3 -13 -1 -16 3 -7 3 8 13 21 22 28 14 11 14 11 -1 6 -11 -4 -18 -1 -18 6 0 7
7 10 18 7 9 -3 42 -13 72 -21 53 -15 85 -40 74 -57 -3 -5 3 -6 12 -2 12 4 15
3 10 -5 -4 -7 -22 -12 -39 -11 -27 0 -29 2 -12 9 13 6 15 9 5 9 -13 1 -13 2 0
11 8 5 12 10 8 10 -4 0 -23 -11 -42 -24 -34 -23 -34 -23 -8 -23 15 0 39 -2 54
-5 19 -5 28 -2 32 9 4 8 12 13 19 10 8 -3 20 -1 28 4 12 7 12 9 -1 10 -8 1
-22 0 -30 -1 -10 -1 -12 2 -5 9 7 7 21 6 47 -2 32 -12 35 -14 20 -25 -15 -12
-15 -12 3 -6 46 15 58 17 53 8 -4 -5 10 -9 29 -10 33 -1 57 -19 47 -35 -2 -4
1 -11 7 -15 7 -4 9 -3 6 3 -7 11 41 28 51 18 3 -3 -2 -5 -11 -5 -10 0 -17 -7
-17 -15 0 -8 -8 -16 -17 -17 -10 -1 -25 -2 -33 -4 -8 -1 -21 -2 -29 -3 -19 -1
-9 -11 18 -16 13 -2 31 -7 40 -10 10 -3 24 1 31 10 8 10 9 15 2 15 -6 0 -9 6
-6 14 6 16 43 28 58 19 6 -4 22 -8 35 -9 14 -2 31 -10 37 -19 7 -9 18 -13 28
-9 11 4 16 1 16 -11 0 -11 5 -15 15 -11 9 3 15 0 15 -9 0 -10 -10 -15 -30 -15
-16 0 -30 -5 -30 -11 0 -5 4 -8 9 -5 5 3 12 -2 15 -11 6 -14 9 -15 15 -4 6 9
11 10 15 2 5 -8 13 -8 27 -1 11 7 19 7 19 1 0 -10 18 -10 35 1 6 3 29 -4 52
-16 29 -16 39 -26 33 -36 -4 -7 -6 -20 -2 -28 3 -9 1 -13 -5 -9 -5 3 -10 0
-10 -7 0 -10 17 -13 46 -7 2 1 -3 9 -12 19 -13 14 -14 21 -5 30 17 17 33 15
19 -2 -8 -10 -9 -16 -1 -21 14 -9 66 -18 58 -10 -6 6 -29 12 -53 14 -5 1 -4 5
4 10 15 10 81 -8 81 -22 0 -5 7 -7 15 -3 8 3 37 1 63 -4 26 -5 101 -10 167
-11 66 -2 123 -4 128 -6 14 -8 -13 -42 -28 -36 -13 5 -13 7 2 18 16 12 14 12
-11 8 l-30 -6 30 -23 29 -23 -33 -12 c-37 -13 -33 -29 6 -28 24 0 25 1 7 9
-19 8 -19 9 3 9 13 1 22 -5 22 -14 0 -8 -6 -15 -12 -15 -7 0 -24 -3 -37 -7
-18 -5 -22 -3 -16 6 5 10 2 11 -14 6 -14 -4 -21 -2 -21 6 0 7 -6 4 -15 -7 -13
-17 -14 -18 -15 -1 0 10 10 21 22 26 21 8 21 8 -5 15 -15 3 -35 2 -45 -4 -13
-8 -10 -9 13 -3 28 6 29 5 15 -13 -8 -10 -15 -21 -17 -23 -1 -1 -8 1 -15 5 -7
5 -21 10 -31 11 -10 2 -30 9 -45 17 -15 7 -49 12 -77 11 -67 -4 -67 -4 -60
-15 3 -5 19 -7 34 -4 18 4 32 1 36 -7 5 -8 4 -10 -3 -5 -7 4 -12 1 -13 -6 0
-10 -2 -10 -6 0 -2 6 -9 12 -15 12 -6 0 -8 -6 -5 -14 8 -21 -57 -46 -118 -46
-44 0 -53 3 -49 15 4 10 0 15 -11 15 -9 0 -13 -4 -10 -10 3 -5 -3 -10 -14 -10
-12 0 -21 5 -21 11 0 5 -5 7 -10 4 -6 -4 -17 -2 -24 5 -8 6 -27 8 -43 5 -22
-5 -25 -4 -13 5 12 9 9 10 -13 5 -16 -3 -35 -1 -43 5 -7 7 -17 9 -22 6 -14 -8
-104 26 -119 44 -8 10 -8 19 -1 27 7 9 2 14 -17 19 -21 5 -24 9 -13 16 10 8 9
9 -3 5 -9 -3 -22 0 -29 6 -10 9 -11 9 -5 -2 6 -11 4 -13 -9 -8 -10 4 -15 3
-11 -3 9 -14 -8 -12 -24 3 -9 7 -11 7 -8 1 9 -16 -18 -25 -32 -11 -6 6 -11 19
-11 28 0 21 -26 43 -39 34 -6 -3 -9 0 -8 7 2 7 2 10 0 5 -3 -4 -8 -5 -13 -2
-4 3 -10 -1 -13 -8 -3 -7 5 -13 20 -14 27 -1 51 -19 40 -29 -3 -4 -13 1 -22
10 -9 9 -20 14 -25 11 -11 -7 -70 15 -70 26 0 5 -5 9 -11 9 -5 0 -8 -3 -6 -8
11 -16 -319 3 -378 23 l-20 7 20 -13 c11 -7 38 -16 60 -20 32 -5 25 -7 -37 -8
-49 -1 -78 3 -80 10 -3 9 -9 9 -24 1 -48 -26 -278 4 -299 38 -4 6 -11 7 -17 4
-6 -4 -17 1 -25 11 -7 11 -13 16 -13 12 0 -4 -17 3 -37 16 -21 13 -40 24 -43
24 -3 -1 -18 8 -34 18 -16 11 -35 20 -43 21 -8 1 -26 10 -41 20 -15 10 -32 19
-38 20 -27 4 -83 37 -78 45 3 6 -5 7 -20 3 -17 -4 -26 -2 -26 6 0 7 7 10 15 6
8 -3 15 -1 15 3 0 5 10 7 23 4 19 -4 20 -3 5 7 -13 8 -26 7 -54 -5 -34 -14
-35 -14 -23 2 13 15 12 15 -6 6 -13 -7 -36 -8 -65 -3 -25 5 -48 9 -52 10 -5 0
-8 8 -8 18 0 13 -2 14 -9 4 -7 -11 -9 -11 -14 1 -3 8 -1 19 5 25 6 6 7 15 4
20 -10 16 -55 7 -71 -14 -15 -19 -15 -19 -8 0 4 13 3 17 -5 12 -6 -3 -13 -2
-17 4 -4 6 -11 7 -17 4 -6 -4 -20 4 -30 17 -11 13 -16 17 -12 9 7 -13 5 -13
-9 -1 -22 18 -22 32 1 24 14 -5 14 -3 -3 11 -17 15 -18 17 -2 12 10 -3 16 -2
13 3 -9 14 -45 20 -53 9 -3 -6 -1 -8 4 -5 6 4 13 0 17 -8 8 -23 -12 -28 -24
-5 -6 11 -14 18 -19 16 -4 -3 -15 4 -24 15 -9 10 -12 19 -7 19 6 0 10 5 10 11
0 6 -7 8 -16 5 -10 -4 -13 -2 -8 7 6 9 4 9 -8 -1 -13 -11 -23 -6 -62 32 -25
25 -46 42 -46 39 0 -3 -9 2 -20 12 -10 9 -19 20 -18 24 2 18 -3 31 -13 31 -8
0 -7 -6 2 -17 12 -14 12 -16 -1 -11 -8 2 -16 12 -18 21 -3 14 5 16 43 15 26
-2 42 -4 36 -6z m794 -202 c-8 -13 -75 -13 -95 0 -11 7 2 10 43 10 36 0 56 -4
52 -10z m42 -6 c-3 -3 -12 -4 -19 -1 -8 3 -5 6 6 6 11 1 17 -2 13 -5z m618
-55 c-4 -6 -13 -6 -24 1 -12 6 -22 5 -29 -2 -9 -9 -12 -8 -12 4 0 9 8 18 18
21 22 5 54 -11 47 -24z m-1092 -39 c4 0 5 5 2 10 -3 6 -1 10 4 10 14 0 14 -17
1 -25 -6 -4 -8 -11 -5 -16 8 -11 -15 -12 -34 0 -9 6 -10 11 -2 15 6 4 8 13 5
19 -5 8 -3 8 7 0 7 -7 17 -13 22 -13z m1427 -74 c0 -3 -4 -8 -10 -11 -5 -3
-10 -1 -10 4 0 6 5 11 10 11 6 0 10 -2 10 -4z m520 -199 c0 -5 -10 -1 -22 7
-19 14 -23 14 -34 -2 -13 -16 -13 -16 -14 1 0 9 5 17 11 17 5 0 7 4 4 10 -3 5
8 2 24 -8 17 -9 31 -21 31 -25z m-297 -140 c-2 -4 1 -14 7 -22 8 -10 9 -15 2
-15 -6 0 -14 5 -17 10 -4 6 -12 7 -18 3 -7 -4 -5 2 3 12 14 17 14 18 -5 8 -14
-7 -29 -6 -50 3 -32 14 -32 14 2 18 13 2 25 5 28 8 9 8 54 -15 48 -25z m901
-13 c3 -8 2 -12 -4 -9 -6 3 -10 -1 -10 -10 0 -9 5 -13 10 -10 6 3 10 2 10 -4
0 -21 -18 -19 -28 3 -7 17 -7 27 1 35 14 14 14 14 21 -5z m-284 -44 c12 -8 11
-10 -7 -10 -13 0 -23 5 -23 10 0 13 11 13 30 0z"/>
<path d="M4506 7951 c-37 -40 17 -89 76 -69 36 12 41 32 17 62 -25 31 -68 34
-93 7z"/>
<path d="M3458 7824 c-50 -27 -34 -90 32 -124 47 -24 88 -26 118 -4 44 31 19
93 -52 125 -49 22 -63 23 -98 3z"/>
<path d="M4958 7684 c-34 -18 -48 -43 -48 -85 0 -26 10 -42 48 -79 74 -71 177
-92 243 -47 58 39 58 98 -1 157 -62 62 -180 88 -242 54z"/>
<path d="M3993 7554 c-14 -6 -17 -52 -5 -70 15 -21 57 -44 82 -44 49 0 66 47
32 90 -17 21 -83 36 -109 24z"/>
<path d="M4477 7502 c-24 -27 -21 -55 11 -84 32 -31 72 -48 113 -48 95 0 91
87 -5 131 -52 24 -98 24 -119 1z"/>
<path d="M3705 7476 c-41 -30 22 -109 67 -85 25 14 22 45 -7 74 -28 29 -34 30
-60 11z"/>
<path d="M4852 7200 c-72 -29 -13 -154 96 -202 90 -40 154 7 117 86 -23 48
-85 102 -132 115 -45 13 -51 13 -81 1z m139 -143 c-10 -9 -11 -8 -5 6 3 10 9
15 12 12 3 -3 0 -11 -7 -18z"/>
<path d="M4370 7184 c-30 -36 34 -113 83 -100 64 16 26 115 -44 116 -15 0 -32
-7 -39 -16z"/>
<path d="M5468 7004 c-59 -31 -30 -105 57 -145 78 -36 154 -14 155 45 0 28
-70 92 -115 105 -51 14 -64 13 -97 -5z"/>
<path d="M5234 6745 c-18 -46 29 -94 80 -81 54 13 15 96 -45 96 -17 0 -32 -6
-35 -15z"/>
<path d="M2830 7530 c0 -5 5 -10 10 -10 6 0 10 5 10 10 0 6 -4 10 -10 10 -5 0
-10 -4 -10 -10z"/>
<path d="M2976 7473 c4 -21 3 -33 -4 -33 -6 0 -9 6 -7 13 3 7 -4 12 -19 12
-28 0 -29 -11 -1 -40 25 -27 47 -29 39 -3 -3 10 -1 18 4 18 5 0 9 7 8 16 0 9
5 19 12 21 8 3 12 -1 10 -12 -2 -10 4 -20 12 -22 13 -4 13 -3 0 6 -12 8 -12
11 -1 11 11 0 11 3 1 15 -7 9 -20 13 -28 10 -9 -3 -19 0 -24 7 -4 7 -5 -1 -2
-19z"/>
<path d="M2681 7437 c-13 -21 -12 -21 5 -5 10 10 16 20 13 22 -3 3 -11 -5 -18
-17z"/>
<path d="M3015 7400 c-4 -6 3 -10 14 -10 25 0 27 6 6 13 -8 4 -17 2 -20 -3z"/>
<path d="M3291 7226 c8 -16 19 -23 34 -22 22 1 22 2 8 19 -20 21 -27 22 -19 1
3 -8 2 -12 -4 -9 -6 3 -10 13 -10 21 0 8 -4 14 -10 14 -6 0 -5 -9 1 -24z"/>
<path d="M3220 7232 c0 -4 4 -13 9 -20 7 -11 9 -11 14 1 3 9 -1 18 -9 21 -8 3
-14 2 -14 -2z"/>
<path d="M2726 7188 c3 -5 10 -6 15 -3 13 9 11 12 -6 12 -8 0 -12 -4 -9 -9z"/>
<path d="M2766 7188 c4 -6 55 -1 62 7 3 2 -12 3 -31 2 -19 -1 -33 -5 -31 -9z"/>
<path d="M2880 7177 c-22 -9 -23 -11 -6 -14 10 -3 23 0 29 6 16 16 5 20 -23 8z"/>
<path d="M3000 7170 c0 -5 6 -10 14 -10 8 0 18 5 21 10 3 6 -3 10 -14 10 -12
0 -21 -4 -21 -10z"/>
<path d="M2894 7119 c-3 -6 0 -15 7 -20 22 -14 36 -10 17 5 -10 7 -15 16 -11
19 3 4 4 7 0 7 -3 0 -9 -5 -13 -11z"/>
<path d="M3360 7115 c0 -8 4 -15 10 -15 5 0 7 7 4 15 -4 8 -8 15 -10 15 -2 0
-4 -7 -4 -15z"/>
<path d="M2963 7113 c4 -6 1 -14 -5 -17 -7 -3 2 -3 20 0 22 3 31 1 27 -6 -3
-5 -2 -10 3 -10 11 0 25 30 17 38 -3 3 -5 0 -5 -8 0 -10 -3 -10 -15 0 -12 10
-15 10 -15 0 0 -9 -4 -9 -17 1 -9 8 -14 9 -10 2z"/>
<path d="M3050 7116 c0 -2 7 -7 16 -10 8 -3 12 -2 9 4 -6 10 -25 14 -25 6z"/>
<path d="M3103 7113 c9 -14 -20 -25 -44 -18 -20 7 -35 -10 -18 -21 8 -4 9 -3
5 4 -10 16 5 15 27 -2 10 -8 16 -20 15 -27 -2 -7 7 -18 19 -24 13 -7 21 -14
18 -17 -8 -7 24 -32 45 -35 26 -4 33 12 13 28 -9 8 -18 13 -20 12 -1 -2 -6 -3
-10 -3 -5 0 -1 4 7 10 9 5 19 5 25 0 8 -6 12 -5 12 4 0 9 -8 13 -21 10 -11 -2
-24 2 -29 9 -6 8 -7 6 -3 -5 3 -10 2 -18 -2 -18 -12 0 -33 40 -27 50 3 6 -1 7
-9 4 -21 -8 -20 6 1 21 13 9 13 14 3 20 -8 5 -11 4 -7 -2z m12 -73 c3 -6 -1
-7 -9 -4 -18 7 -21 14 -7 14 6 0 13 -4 16 -10z m39 -46 c5 -14 4 -15 -9 -4
-17 14 -19 20 -6 20 5 0 12 -7 15 -16z"/>
<path d="M3360 7050 c0 -5 5 -10 11 -10 5 0 7 5 4 10 -3 6 -8 10 -11 10 -2 0
-4 -4 -4 -10z"/>
<path d="M3536 7005 c-11 -8 -15 -15 -9 -15 6 0 16 7 23 15 16 19 11 19 -14 0z"/>
<path d="M3554 6989 c-3 -6 -2 -15 3 -20 5 -5 9 -1 9 11 0 23 -2 24 -12 9z"/>
<path d="M3665 6970 c-3 -6 1 -7 9 -4 18 7 21 14 7 14 -6 0 -13 -4 -16 -10z"/>
<path d="M3230 6949 c0 -13 29 -17 38 -6 8 9 4 12 -14 12 -13 0 -24 -3 -24 -6z"/>
<path d="M3688 6938 c5 -23 19 -38 35 -38 5 0 1 7 -7 16 -9 8 -16 22 -16 30 0
8 -4 14 -9 14 -5 0 -7 -10 -3 -22z"/>
<path d="M3580 6942 c0 -15 41 -42 63 -42 21 1 21 1 2 12 -11 6 -22 14 -25 18
-8 10 -40 20 -40 12z"/>
<path d="M3720 6930 c0 -5 5 -10 11 -10 5 0 7 5 4 10 -3 6 -8 10 -11 10 -2 0
-4 -4 -4 -10z"/>
<path d="M3436 6871 c-4 -5 3 -7 14 -4 23 6 26 13 6 13 -8 0 -17 -4 -20 -9z"/>
<path d="M3489 6829 c-10 -6 -7 -9 14 -9 29 0 35 5 14 13 -8 3 -20 1 -28 -4z"/>
<path d="M3890 6807 c0 -25 19 -31 40 -12 11 10 24 14 32 9 8 -4 10 -3 5 2
-12 13 -57 12 -49 -1 3 -5 -2 -4 -11 4 -15 12 -17 11 -17 -2z"/>
<path d="M3480 6750 c13 -8 12 -10 -4 -10 -14 0 -17 -3 -10 -10 6 -6 18 -8 28
-4 13 5 14 9 5 20 -6 8 -17 14 -23 14 -6 0 -4 -5 4 -10z"/>
<path d="M3520 6730 c0 -5 18 -9 40 -8 22 1 40 5 40 10 0 4 -18 8 -40 8 -22 0
-40 -4 -40 -10z"/>
<path d="M3827 6719 c-10 -14 -16 -16 -19 -8 -2 7 -7 9 -10 4 -3 -6 4 -18 17
-27 21 -16 23 -16 21 -1 0 9 9 22 22 29 20 10 21 12 7 18 -23 8 -22 9 -38 -15z"/>
<path d="M4021 6722 c0 -13 4 -33 10 -44 8 -16 8 -23 -2 -30 -11 -7 -9 -8 4
-4 10 3 24 6 30 6 6 0 1 10 -10 23 -12 12 -23 33 -26 47 -4 24 -4 24 -6 2z"/>
<path d="M3638 6713 c7 -3 16 -2 19 1 4 3 -2 6 -13 5 -11 0 -14 -3 -6 -6z"/>
<path d="M4001 6700 c0 -8 4 -22 9 -30 12 -18 12 -2 0 25 -6 13 -9 15 -9 5z"/>
<path d="M3748 6693 c6 -2 18 -2 25 0 6 3 1 5 -13 5 -14 0 -19 -2 -12 -5z"/>
<path d="M4009 6588 c-6 -21 -5 -39 2 -44 5 -3 9 6 9 20 0 21 -7 36 -11 24z"/>
<path d="M3954 6562 c-12 -8 -26 -42 -18 -42 16 0 44 23 44 35 0 16 -9 19 -26
7z"/>
<path d="M4100 6531 c0 -5 5 -13 10 -16 6 -3 10 -2 10 4 0 5 -4 13 -10 16 -5
3 -10 2 -10 -4z"/>
<path d="M3989 6488 c11 -31 28 -33 41 -6 10 21 10 21 -3 6 -17 -21 -28 -23
-21 -4 3 7 -2 16 -10 19 -12 5 -13 1 -7 -15z"/>
<path d="M2108 6973 c6 -2 10 -9 6 -14 -3 -5 -1 -9 5 -9 5 0 12 6 14 13 4 9 6
9 6 -1 1 -7 6 -10 11 -7 17 11 0 25 -28 24 -15 0 -21 -3 -14 -6z"/>
<path d="M2118 6857 c-10 -6 -9 -7 4 -4 9 3 19 -1 22 -9 3 -8 13 -13 23 -13
16 1 16 2 1 6 -9 2 -15 10 -12 17 6 15 -19 17 -38 3z"/>
<path d="M2343 6646 c1 -6 -4 -10 -12 -8 -11 2 -12 0 -3 -11 7 -8 8 -17 4 -21
-4 -4 5 -2 20 5 15 6 25 16 21 22 -4 6 -1 7 6 3 9 -6 8 -12 -4 -26 -14 -16
-14 -18 2 -31 16 -13 17 -12 5 3 -8 10 -9 19 -3 22 5 3 11 1 13 -6 3 -8 11 -7
28 5 19 13 21 17 7 17 -9 0 -17 -5 -17 -12 0 -15 -13 -1 -16 17 -1 8 3 15 9
15 5 0 8 3 4 6 -10 11 -66 10 -64 0z"/>
<path d="M2540 6615 c0 -8 7 -15 16 -15 14 0 14 3 4 15 -7 8 -14 15 -16 15 -2
0 -4 -7 -4 -15z"/>
<path d="M2456 6593 c-6 -14 -5 -15 5 -6 7 7 10 15 7 18 -3 3 -9 -2 -12 -12z"/>
<path d="M2571 6591 c-8 -5 -9 -11 -3 -15 5 -3 12 1 16 9 6 17 6 18 -13 6z"/>
<path d="M2471 6544 c8 -9 5 -11 -13 -8 -13 2 -17 2 -10 -2 6 -3 10 -9 7 -14
-6 -10 25 -43 33 -35 4 3 1 9 -5 13 -8 5 -9 13 -3 22 14 22 12 37 -5 37 -11 0
-12 -4 -4 -13z"/>
<path d="M2580 6530 c0 -6 -10 -14 -22 -19 -19 -7 -17 -9 14 -8 26 1 43 -5 54
-19 14 -18 14 -18 3 6 -7 14 -12 26 -11 28 8 11 -2 22 -18 22 -11 0 -20 -5
-20 -10z"/>
<path d="M2700 6429 c0 -5 5 -7 10 -4 6 3 10 8 10 11 0 2 -4 4 -10 4 -5 0 -10
-5 -10 -11z"/>
<path d="M2600 6421 c0 -5 9 -7 20 -4 11 3 20 7 20 9 0 2 -9 4 -20 4 -11 0
-20 -4 -20 -9z"/>
<path d="M2219 6903 c0 -5 -2 -16 -4 -25 -2 -11 3 -18 13 -18 8 0 12 -3 9 -7
-4 -3 2 -12 13 -20 15 -11 24 -11 41 -3 19 11 20 13 4 30 -18 19 -50 16 -38
-4 4 -6 -1 -5 -10 3 -17 13 -14 36 4 26 5 -3 6 1 3 9 -6 16 -33 22 -35 9z m81
-57 c0 -2 -9 -6 -20 -9 -11 -3 -18 -1 -14 4 5 9 34 13 34 5z"/>
<path d="M2930 6301 c6 -12 18 -21 28 -22 14 0 14 -2 -3 -9 -16 -7 -17 -9 -3
-9 30 -2 28 15 -3 38 -30 22 -30 22 -19 2z"/>
<path d="M3101 6174 c16 -19 21 -44 9 -44 -5 0 -11 6 -14 13 -3 6 -4 1 -1 -13
5 -25 5 -25 -6 -2 -7 12 -16 22 -21 22 -5 0 -4 -8 1 -19 6 -10 7 -22 3 -26 -4
-3 0 -5 8 -3 8 2 14 -2 13 -8 -1 -6 4 -11 12 -11 8 0 12 4 9 9 -3 4 1 8 8 8 9
0 9 3 -2 10 -14 9 -13 11 10 14 6 0 10 6 9 11 -1 6 -5 9 -11 7 -5 -1 -6 2 -3
8 5 8 13 5 27 -6 18 -17 18 -19 2 -31 -10 -7 -14 -13 -9 -13 4 0 0 -10 -11
-22 -12 -14 -13 -18 -3 -10 9 6 19 9 22 5 6 -6 11 11 8 29 0 4 6 5 15 1 9 -3
12 -9 7 -12 -13 -9 -10 -34 6 -39 10 -3 12 0 8 13 -10 25 2 38 21 23 15 -11
15 -11 5 3 -7 9 -9 20 -5 24 4 5 2 5 -4 2 -6 -3 -21 4 -34 16 -48 45 -109 77
-79 41z m94 -64 c3 -6 -1 -7 -9 -4 -18 7 -21 14 -7 14 6 0 13 -4 16 -10z"/>
<path d="M3243 6081 c0 -11 5 -18 9 -15 4 3 5 11 1 19 -7 21 -12 19 -10 -4z"/>
<path d="M3294 6047 c1 -11 8 -22 16 -24 13 -4 13 -3 0 6 -12 9 -13 13 -2 20
11 7 11 9 -1 14 -10 4 -14 -1 -13 -16z"/>
<path d="M3190 6029 c0 -5 4 -8 9 -5 5 4 11 1 13 -6 3 -8 7 -6 11 5 5 12 1 17
-13 17 -11 0 -20 -5 -20 -11z"/>
<path d="M3328 6018 c-19 -19 -15 -21 14 -10 10 4 14 12 10 18 -5 6 -13 4 -24
-8z"/>
<path d="M3291 5985 c0 -16 6 -39 14 -49 13 -17 15 -17 15 -4 0 9 -4 20 -10
23 -5 3 -10 12 -10 18 1 7 9 1 20 -12 11 -12 18 -27 15 -31 -3 -5 -1 -11 5
-15 5 -3 10 -1 10 5 0 6 4 8 10 5 5 -3 0 10 -13 29 -12 19 -27 35 -34 36 -6 0
-14 6 -16 13 -3 6 -6 -1 -6 -18z"/>
<path d="M3363 5994 c-5 -13 -7 -13 -14 -2 -5 7 -9 9 -9 3 0 -17 14 -30 35
-33 12 -2 16 0 9 5 -6 4 -10 16 -8 26 3 21 -5 22 -13 1z"/>
<path d="M3443 5985 c0 -7 6 -11 14 -8 7 3 13 6 13 8 0 2 -6 5 -13 8 -8 3 -14
-1 -14 -8z"/>
<path d="M3904 5954 c-18 -14 -18 -15 4 -4 12 6 22 13 22 15 0 8 -5 6 -26 -11z"/>
<path d="M3460 5946 c14 -9 32 -15 40 -15 13 0 13 1 0 8 -8 5 -26 12 -40 15
l-25 7 25 -15z"/>
<path d="M3840 5951 c0 -5 9 -7 20 -4 11 3 20 7 20 9 0 2 -9 4 -20 4 -11 0
-20 -4 -20 -9z"/>
<path d="M3974 5948 c10 -6 22 -6 26 -2 5 5 -3 10 -18 11 -22 1 -24 0 -8 -9z"/>
<path d="M3700 5940 c-18 -12 -2 -12 25 0 13 6 15 9 5 9 -8 0 -22 -4 -30 -9z"/>
<path d="M3440 5930 c0 -5 7 -10 16 -10 8 0 12 5 9 10 -3 6 -10 10 -16 10 -5
0 -9 -4 -9 -10z"/>
<path d="M3865 5930 c3 -5 14 -10 23 -10 15 0 15 2 2 10 -20 13 -33 13 -25 0z"/>
<path d="M3918 5933 c7 -3 16 -2 19 1 4 3 -2 6 -13 5 -11 0 -14 -3 -6 -6z"/>
<path d="M3958 5923 c7 -3 16 -2 19 1 4 3 -2 6 -13 5 -11 0 -14 -3 -6 -6z"/>
<path d="M4068 5923 c7 -3 16 -2 19 1 4 3 -2 6 -13 5 -11 0 -14 -3 -6 -6z"/>
<path d="M4370 5911 c-8 -4 -32 -16 -52 -26 -21 -10 -38 -22 -38 -27 0 -11 17
-10 25 2 3 6 21 10 38 11 30 1 30 1 7 8 -23 7 -23 8 13 15 20 4 37 11 37 16 0
12 -9 12 -30 1z"/>
<path d="M3455 5900 c3 -5 8 -10 11 -10 2 0 4 5 4 10 0 6 -5 10 -11 10 -5 0
-7 -4 -4 -10z"/>
<path d="M3520 5859 c0 -5 5 -7 10 -4 6 3 10 8 10 11 0 2 -4 4 -10 4 -5 0 -10
-5 -10 -11z"/>
<path d="M4193 5856 c2 -6 15 -11 30 -11 32 -1 26 11 -8 17 -16 4 -24 1 -22
-6z"/>
<path d="M4608 5863 c7 -3 16 -2 19 1 4 3 -2 6 -13 5 -11 0 -14 -3 -6 -6z"/>
<path d="M3485 5850 c-3 -5 -1 -10 4 -10 6 0 11 5 11 10 0 6 -2 10 -4 10 -3 0
-8 -4 -11 -10z"/>
<path d="M4528 5853 c7 -3 16 -2 19 1 4 3 -2 6 -13 5 -11 0 -14 -3 -6 -6z"/>
<path d="M3700 5829 c0 -4 -9 -11 -21 -14 -23 -8 -20 -31 5 -27 9 2 16 -1 16
-6 0 -6 7 -13 16 -16 14 -5 15 -4 5 7 -9 11 -8 17 4 27 8 7 12 17 8 23 -4 7 0
8 13 3 10 -4 15 -3 10 1 -10 10 -56 11 -56 2z m18 -21 c-2 -6 -15 -12 -28 -13
-21 -2 -22 -1 -5 12 23 16 38 17 33 1z"/>
<path d="M4515 5824 c-19 -16 -19 -16 10 -10 17 4 35 7 42 8 18 2 4 18 -15 18
-9 0 -26 -8 -37 -16z"/>
<path d="M4725 5810 c3 -5 11 -10 16 -10 6 0 7 5 4 10 -3 6 -11 10 -16 10 -6
0 -7 -4 -4 -10z"/>
<path d="M3743 5795 c-10 -11 -8 -18 13 -34 14 -11 32 -17 40 -14 10 3 12 0 8
-10 -4 -11 0 -15 12 -13 29 4 25 32 -5 31 -40 -2 -63 13 -56 36 7 22 5 23 -12
4z"/>
<path d="M4170 5790 c-9 -6 -10 -10 -3 -10 6 0 15 5 18 10 8 12 4 12 -15 0z"/>
<path d="M4252 5791 c-9 -5 -5 -11 13 -19 26 -12 34 -2 12 16 -7 6 -18 7 -25
3z"/>
<path d="M4560 5769 c0 -5 4 -8 9 -5 5 4 11 2 13 -3 1 -5 9 -3 16 5 11 12 9
14 -13 14 -14 0 -25 -5 -25 -11z"/>
<path d="M3909 5758 c-1 -2 -2 -22 -3 -44 -2 -35 0 -39 11 -28 11 10 11 18 3
34 -6 11 -8 25 -5 30 3 6 4 10 1 10 -3 0 -6 -1 -7 -2z"/>
<path d="M4985 5740 c3 -6 -4 -10 -16 -10 -12 0 -19 -3 -15 -7 13 -14 33 -10
44 8 10 16 9 19 -4 19 -8 0 -12 -4 -9 -10z"/>
<path d="M3863 5729 c9 -5 17 -15 17 -21 0 -9 -3 -9 -12 0 -7 7 -16 12 -22 12
-5 0 -1 -8 10 -18 16 -15 21 -16 32 -5 11 11 11 16 -2 28 -8 8 -21 15 -28 15
-8 0 -7 -4 5 -11z"/>
<path d="M5119 5718 c-1 -2 -3 -13 -4 -26 -2 -18 0 -20 11 -11 8 6 25 9 38 7
18 -4 23 -1 19 9 -3 8 -13 11 -24 8 -11 -4 -19 -2 -19 4 0 9 -17 16 -21 9z"/>
<path d="M3931 5663 c6 -6 21 -14 35 -17 14 -4 22 -11 19 -16 -3 -6 1 -7 10
-3 13 4 14 8 4 14 -8 4 -10 11 -7 15 4 4 19 -1 33 -10 16 -11 25 -12 25 -5 0
7 8 18 18 26 13 12 11 12 -9 0 -20 -12 -29 -13 -38 -4 -9 9 -16 9 -30 0 -10
-6 -24 -8 -31 -3 -10 6 -8 9 6 13 10 2 5 4 -13 3 -22 -1 -29 -4 -22 -13z"/>
<path d="M5196 5665 c-3 -8 -1 -15 4 -15 6 0 10 7 10 15 0 8 -2 15 -4 15 -2 0
-6 -7 -10 -15z"/>
<path d="M4020 5621 c0 -5 7 -12 16 -15 14 -5 15 -4 4 9 -14 17 -20 19 -20 6z"/>
<path d="M4060 5616 c0 -8 4 -17 9 -20 5 -4 7 3 4 14 -6 23 -13 26 -13 6z"/>
<path d="M5018 5623 c6 -2 18 -2 25 0 6 3 1 5 -13 5 -14 0 -19 -2 -12 -5z"/>
<path d="M4969 5615 c-1 -6 -1 -13 0 -17 0 -4 -7 -7 -17 -6 -9 1 -28 0 -42 0
l-24 -2 22 -16 c13 -9 27 -26 32 -38 l9 -21 0 23 c1 12 10 31 22 43 15 15 18
24 10 32 -6 6 -12 7 -12 2z m-19 -41 c0 -8 -4 -12 -10 -9 -5 3 -10 10 -10 16
0 5 5 9 10 9 6 0 10 -7 10 -16z"/>
<path d="M5125 5610 c-3 -5 -1 -10 4 -10 6 0 11 5 11 10 0 6 -2 10 -4 10 -3 0
-8 -4 -11 -10z"/>
<path d="M5165 5610 c-19 -8 -19 -9 3 -9 12 -1 22 4 22 9 0 6 -1 10 -2 9 -2 0
-12 -4 -23 -9z"/>
<path d="M4240 5603 c0 -5 -12 -9 -27 -9 -16 -1 -37 -3 -48 -4 -11 -1 -30 1
-42 5 -15 5 -23 3 -23 -4 0 -10 41 -17 65 -11 10 3 62 7 103 9 30 1 28 21 -3
21 -14 0 -25 -3 -25 -7z"/>
<path d="M4626 5603 c-3 -4 -25 -10 -49 -14 -39 -6 -37 -7 23 -8 68 -1 106 11
75 23 -22 8 -40 8 -49 -1z"/>
<path d="M4725 5590 c-13 -6 -15 -9 -5 -9 8 0 22 4 30 9 18 12 2 12 -25 0z"/>
<path d="M5370 5586 c0 -9 7 -12 19 -9 10 3 22 0 25 -6 4 -6 12 -11 19 -11 13
0 -19 23 -45 33 -12 4 -18 1 -18 -7z"/>
<path d="M4806 5568 c3 -4 9 -8 15 -8 5 0 9 4 9 8 0 5 -7 9 -15 9 -8 0 -12 -4
-9 -9z"/>
<path d="M5380 5559 c0 -5 -4 -7 -10 -4 -5 3 -10 2 -10 -2 0 -5 15 -9 34 -9
30 0 32 2 18 13 -21 15 -32 16 -32 2z"/>
<path d="M5090 5540 c14 -27 29 -34 23 -11 -3 11 -11 22 -19 25 -11 4 -12 2
-4 -14z"/>
<path d="M5074 5523 c2 -9 8 -19 15 -21 10 -3 10 0 2 17 -14 25 -20 27 -17 4z"/>
<path d="M5506 5492 c-2 -4 4 -8 14 -8 10 0 16 4 14 8 -3 4 -9 8 -14 8 -5 0
-11 -4 -14 -8z"/>
<path d="M5683 5493 c9 -2 23 -2 30 0 6 3 -1 5 -18 5 -16 0 -22 -2 -12 -5z"/>
<path d="M5750 5490 c-8 -5 -10 -10 -5 -10 6 0 17 5 25 10 8 5 11 10 5 10 -5
0 -17 -5 -25 -10z"/>
<path d="M5829 5491 c11 -7 7 -10 -15 -14 l-29 -4 30 -2 c21 -1 26 -4 17 -10
-11 -7 -10 -9 3 -14 9 -4 13 -3 10 3 -8 13 1 13 26 0 11 -6 19 -7 19 -1 0 5
-12 12 -27 16 -19 4 -23 9 -14 14 10 6 9 10 -4 15 -24 9 -32 7 -16 -3z"/>
<path d="M5103 5475 c-3 -9 -3 -18 -1 -21 3 -3 8 4 11 16 6 23 -1 27 -10 5z"/>
<path d="M5473 5467 c10 -8 17 -19 16 -23 -4 -24 2 -44 12 -39 6 4 8 10 5 13
-3 3 2 15 11 26 10 12 14 18 9 14 -5 -4 -23 0 -40 8 -25 12 -28 12 -13 1z"/>
<path d="M5754 5461 c4 -5 1 -11 -6 -13 -7 -3 -8 -7 -2 -11 5 -3 15 3 22 14
10 16 9 19 -4 19 -8 0 -13 -4 -10 -9z"/>
<path d="M5680 5451 c0 -5 7 -11 15 -15 9 -3 15 0 15 9 0 8 -7 15 -15 15 -8 0
-15 -4 -15 -9z"/>
<path d="M5160 5430 c-8 -5 -10 -10 -5 -10 6 0 17 5 25 10 8 5 11 10 5 10 -5
0 -17 -5 -25 -10z"/>
<path d="M5258 5433 c10 -4 10 -8 -3 -17 -12 -9 -4 -11 37 -10 72 1 78 2 78
15 0 5 -4 8 -9 5 -5 -4 -12 0 -14 6 -3 8 -6 6 -6 -4 -1 -19 -21 -26 -21 -7 0
6 -8 8 -19 4 -11 -3 -22 -1 -26 5 -3 5 -12 10 -18 9 -8 0 -8 -2 1 -6z"/>
<path d="M5390 5433 c8 -3 18 -11 22 -17 4 -6 10 -7 15 -3 9 10 -16 27 -37 26
-13 -1 -13 -1 0 -6z"/>
<path d="M5190 5420 c-9 -6 -10 -10 -3 -10 6 0 15 5 18 10 8 12 4 12 -15 0z"/>
<path d="M5525 5410 c-3 -6 1 -7 9 -4 18 7 21 14 7 14 -6 0 -13 -4 -16 -10z"/>
<path d="M5546 5385 c4 -8 10 -12 15 -9 14 8 10 24 -6 24 -9 0 -12 -6 -9 -15z"/>
<path d="M5520 5381 c0 -6 4 -13 10 -16 6 -3 7 1 4 9 -7 18 -14 21 -14 7z"/>
<path d="M5011 5491 c-8 -5 -9 -11 -3 -15 5 -3 12 1 16 9 6 17 6 18 -13 6z"/>
<path d="M8049 8035 c-100 -19 -173 -47 -246 -94 -66 -42 -142 -124 -169 -182
-21 -42 -34 -50 -34 -19 0 36 -40 126 -74 166 -37 43 -117 87 -187 103 -26 6
-221 11 -476 11 -379 0 -433 -2 -447 -16 -13 -13 -16 -42 -16 -159 0 -158 6
-175 59 -175 60 0 62 -6 59 -215 l-3 -190 -44 -6 c-66 -9 -71 -21 -71 -181 0
-125 2 -140 20 -158 19 -19 33 -20 368 -20 298 0 351 2 370 16 21 14 22 22 22
164 0 142 -1 150 -22 164 -13 10 -44 16 -75 16 -28 0 -55 5 -58 10 -4 6 39 10
123 10 71 0 154 5 183 10 72 13 174 65 201 100 26 36 38 30 38 -19 0 -20 7
-62 16 -92 56 -189 201 -324 411 -380 112 -31 325 -31 438 0 209 56 336 169
402 357 24 70 27 94 27 204 1 101 -3 138 -21 195 -57 181 -194 308 -395 365
-97 28 -293 35 -399 15z m201 -44 c0 -4 19 -7 43 -5 73 5 211 -32 180 -48 -14
-8 -57 -2 -78 10 -19 11 -19 11 -1 12 11 0 17 3 13 6 -3 3 -27 1 -54 -5 -26
-6 -61 -13 -77 -16 -15 -3 -26 -8 -23 -11 3 -3 30 -1 59 5 58 13 101 6 76 -11
-10 -8 -9 -9 4 -4 10 3 20 1 23 -4 4 -6 11 -10 16 -10 6 0 7 5 3 11 -4 7 0 9
14 5 11 -4 23 -2 27 4 8 12 35 13 54 1 12 -8 12 -12 2 -25 -7 -9 -18 -13 -25
-9 -7 4 -7 1 1 -7 10 -11 15 -11 28 0 13 10 18 10 33 -2 9 -8 24 -18 32 -22 8
-4 7 -1 -3 7 -11 9 -14 18 -8 21 5 4 16 -2 23 -12 7 -10 21 -21 31 -25 9 -3
17 -12 17 -19 0 -9 -3 -8 -10 2 -11 17 -13 9 -4 -14 6 -15 8 -15 21 1 8 10 12
13 9 6 -3 -6 6 -20 21 -31 l27 -19 -28 0 c-21 0 -26 3 -22 16 4 11 2 10 -9 -3
-10 -13 -15 -15 -15 -6 0 7 -3 10 -6 7 -4 -4 -1 -13 6 -22 9 -10 17 -12 30 -5
22 12 34 1 19 -17 -16 -18 -4 -16 15 3 15 14 16 14 16 0 0 -9 5 -16 11 -16 5
0 7 -5 3 -11 -4 -8 -9 -7 -16 2 -8 11 -9 11 -5 -1 2 -8 10 -15 18 -15 17 0 30
-29 23 -50 -5 -11 -2 -13 10 -9 10 4 16 1 16 -7 0 -7 -3 -9 -7 -5 -4 3 -12 -4
-19 -16 -11 -21 -12 -19 -10 19 2 33 -2 43 -16 46 -15 4 -16 2 -7 -15 8 -15 8
-22 -1 -28 -9 -6 -9 -9 0 -15 6 -4 9 -12 7 -19 -3 -7 6 -12 23 -11 20 0 26 4
23 15 -2 8 1 6 8 -5 9 -13 13 -62 14 -147 0 -116 -2 -128 -20 -142 -11 -8 -17
-18 -12 -22 4 -4 7 -2 7 4 0 7 5 12 10 12 7 0 7 -6 1 -17 -5 -10 -9 -21 -10
-25 -1 -5 -4 -8 -7 -7 -4 0 -15 -12 -25 -28 -10 -15 -19 -23 -19 -16 0 6 4 14
8 17 5 3 9 22 9 43 0 21 -2 28 -4 15 -3 -12 -9 -20 -14 -17 -5 4 -9 -1 -9 -10
0 -9 5 -13 10 -10 14 9 12 -9 -2 -23 -9 -9 -8 -16 6 -30 11 -9 16 -12 12 -6
-3 7 1 15 10 18 15 6 15 4 1 -16 -8 -13 -20 -22 -26 -21 -6 2 -8 -4 -5 -12 4
-8 1 -15 -5 -15 -6 0 -11 8 -12 18 -1 14 -2 14 -8 -3 -3 -11 -14 -36 -24 -55
l-18 -35 20 25 c11 14 21 28 21 33 0 4 5 7 11 7 17 0 -27 -55 -73 -91 -33 -27
-39 -29 -29 -11 6 12 18 22 26 22 7 0 16 4 20 10 3 5 -6 5 -24 -1 -17 -6 -33
-19 -36 -30 -4 -10 -11 -19 -16 -19 -6 0 -8 -4 -5 -8 9 -15 -58 -41 -77 -30
-23 12 -21 23 4 25 14 1 19 -3 15 -12 -3 -9 0 -12 9 -9 18 7 9 31 -15 37 -23
6 -80 -42 -80 -66 0 -16 -21 -22 -64 -18 -10 0 -24 -3 -30 -8 -6 -5 -63 -8
-126 -8 -88 2 -114 5 -112 15 3 15 -29 12 -40 -3 -5 -6 -11 -5 -17 4 -5 7 -14
10 -20 7 -6 -4 -31 2 -55 14 -24 11 -53 22 -64 25 -26 5 -72 35 -72 47 0 5 -4
7 -9 4 -4 -3 -16 3 -26 14 -10 11 -15 20 -11 20 4 0 2 9 -4 20 -6 11 -16 20
-23 20 -7 0 -8 -3 -2 -8 6 -4 11 -14 13 -22 3 -11 -2 -9 -16 5 -11 11 -18 23
-16 27 3 4 -6 14 -18 22 -12 9 -18 16 -13 16 6 0 2 7 -8 14 -11 9 -19 31 -21
60 -2 26 -7 50 -11 54 -4 4 -6 2 -5 -3 7 -35 -3 -33 -16 3 -8 24 -13 49 -10
55 2 7 5 2 5 -10 1 -13 5 -23 9 -23 5 0 7 13 4 30 -2 16 -8 28 -12 25 -21 -13
-15 39 8 75 2 2 7 -2 12 -10 7 -11 10 -8 15 12 4 14 5 37 2 49 -3 15 -5 10 -6
-15 -1 -31 -4 -37 -13 -28 -9 9 -15 7 -25 -6 -12 -15 -13 -8 -9 48 3 36 5 78
5 94 0 21 4 27 16 22 17 -6 20 5 5 20 -14 14 15 84 35 84 8 0 15 5 15 10 0 6
-5 10 -10 10 -26 0 82 127 137 161 22 14 38 17 48 11 15 -8 15 -10 1 -21 -9
-8 -25 -11 -36 -8 -11 3 -18 0 -17 -7 1 -6 -6 -11 -15 -11 -9 0 -20 -4 -25 -9
-4 -5 -3 -6 5 -2 7 4 15 0 19 -10 6 -15 7 -15 15 5 4 12 13 21 20 20 22 -4 66
22 71 42 3 12 14 19 29 19 22 1 22 1 4 15 -24 18 -16 19 18 4 30 -14 70 -4 46
11 -21 13 -38 12 -20 -1 10 -7 11 -9 2 -7 -18 5 -16 23 2 23 8 0 18 4 22 8 13
12 26 8 21 -7 -3 -8 0 -17 7 -19 10 -4 12 1 9 14 -3 10 -1 19 3 20 5 0 22 2
39 4 16 2 33 -1 37 -8 6 -9 8 -9 8 1 0 6 5 12 11 12 5 0 7 -4 4 -10 -3 -6 1
-7 9 -4 9 3 16 10 16 15 0 5 16 9 35 9 19 0 35 -4 35 -9z m-936 -34 c21 -3 43
-10 48 -15 6 -6 17 -8 25 -5 13 5 13 3 2 -15 -12 -19 -11 -24 4 -39 18 -17 18
-17 12 10 -4 15 -3 27 1 26 19 -1 69 -37 67 -48 -2 -6 5 -11 15 -11 14 0 14
-2 3 -9 -9 -6 -21 -3 -34 10 -12 10 -26 19 -31 19 -6 0 -4 -5 6 -10 10 -6 15
-19 12 -32 -4 -21 -4 -21 5 -3 8 19 9 18 20 -7 6 -16 18 -28 28 -28 15 0 15 2
-3 14 -10 8 -15 18 -11 22 11 11 51 -32 43 -45 -9 -14 -43 -14 -51 -1 -3 6
-14 10 -23 10 -13 0 -11 -4 7 -16 14 -10 33 -14 50 -11 17 4 28 1 29 -6 1 -7
5 -29 8 -51 5 -27 3 -37 -4 -32 -6 4 -9 13 -6 21 3 7 1 22 -6 32 -9 16 -10 15
-4 -6 4 -16 3 -21 -5 -17 -19 12 -12 -10 9 -29 18 -16 20 -28 16 -96 -3 -62
-9 -88 -31 -124 -15 -26 -29 -44 -32 -41 -4 3 -13 -3 -20 -14 -23 -32 -71 -54
-89 -39 -12 9 -13 9 -9 -3 3 -8 0 -15 -7 -15 -7 0 -26 -3 -42 -7 -21 -5 -26
-4 -20 6 6 10 5 10 -7 2 -17 -14 -119 -17 -151 -5 -13 6 -17 10 -10 10 7 1 20
8 28 16 24 24 4 17 -32 -10 -39 -30 -61 -32 -69 -5 -8 27 -45 26 -52 -1 -4
-13 -12 -19 -23 -16 -14 3 -16 -3 -14 -37 2 -23 4 -47 6 -53 2 -6 -6 -19 -17
-27 -18 -14 -18 -15 -1 -10 10 4 22 1 28 -7 7 -11 8 -9 4 6 l-6 20 15 -20 c9
-11 18 -19 20 -17 3 1 28 2 55 2 l50 0 0 -120 0 -120 -330 0 -330 0 0 36 c0
28 3 35 15 31 8 -4 17 -2 20 2 2 5 -4 11 -15 14 -18 5 -20 14 -20 82 0 74 1
76 23 73 20 -3 23 -10 28 -73 l6 -70 -1 76 c-1 62 2 75 13 71 10 -4 12 -1 6 9
-7 11 -6 12 6 2 13 -10 19 -9 35 6 18 17 19 17 35 -1 15 -17 16 -1 17 210 0
137 -3 234 -9 242 -8 11 -9 9 -4 -7 4 -13 2 -23 -4 -23 -5 0 -11 10 -13 23 -2
12 -1 -60 1 -160 3 -196 0 -239 -25 -269 -15 -18 -15 -18 -10 0 4 11 6 112 5
225 -1 246 -2 261 -12 261 -5 0 -5 5 -1 12 5 7 3 8 -7 3 -17 -11 -89 -14 -89
-3 0 4 10 12 21 19 17 8 20 8 14 -1 -5 -8 -3 -11 6 -8 18 6 24 47 8 62 -9 8
-11 7 -6 -6 4 -12 1 -18 -8 -18 -8 0 -15 -4 -15 -10 0 -5 -4 -10 -10 -10 -6 0
-10 42 -10 105 l0 106 408 -4 c224 -2 424 -6 446 -10z m606 -26 c0 -10 -24
-21 -43 -21 -7 0 -3 7 7 15 22 17 36 19 36 6z m655 -22 c11 -17 -1 -21 -15 -4
-8 9 -8 15 -2 15 6 0 14 -5 17 -11z m-1958 -481 c-2 -35 -3 -9 -3 57 0 66 1
94 3 63 2 -32 2 -86 0 -120z m-7 -158 l-11 -25 6 25 c2 14 6 41 7 60 l1 35 4
-35 c2 -20 -1 -47 -7 -60z m1886 -292 c5 -7 2 -9 -8 -5 -9 3 -21 0 -27 -6 -13
-13 -26 -3 -16 12 8 15 42 14 51 -1z"/>
<path d="M8295 7970 c-27 -7 -28 -8 -5 -8 14 0 34 3 45 8 25 11 2 11 -40 0z"/>
<path d="M8072 7959 c5 -16 46 -20 103 -9 l40 8 -35 1 c-19 1 -52 4 -74 8 -31
5 -38 3 -34 -8z"/>
<path d="M8028 7923 c7 -3 16 -2 19 1 4 3 -2 6 -13 5 -11 0 -14 -3 -6 -6z"/>
<path d="M8316 7915 c4 -8 12 -15 20 -15 8 0 14 7 14 15 0 8 -9 15 -20 15 -13
0 -18 -5 -14 -15z"/>
<path d="M7838 7883 c7 -3 16 -2 19 1 4 3 -2 6 -13 5 -11 0 -14 -3 -6 -6z"/>
<path d="M7982 7878 c2 -6 15 -12 28 -13 21 -2 22 -1 5 12 -23 16 -38 17 -33
1z"/>
<path d="M8096 7880 c6 -6 21 -6 39 -1 30 9 30 9 -9 10 -26 1 -37 -2 -30 -9z"/>
<path d="M8320 7870 c0 -13 30 -13 50 0 11 7 7 10 -17 10 -18 0 -33 -4 -33
-10z"/>
<path d="M8560 7861 c0 -9 30 -24 36 -18 2 1 -6 8 -16 15 -11 7 -20 8 -20 3z"/>
<path d="M7890 7856 c0 -2 7 -7 16 -10 8 -3 12 -2 9 4 -6 10 -25 14 -25 6z"/>
<path d="M8217 7836 c-3 -8 -16 -16 -29 -18 -30 -4 -38 -38 -9 -38 12 0 21 5
21 11 0 5 -5 7 -12 3 -7 -4 -8 -3 -4 4 4 7 18 12 32 12 14 0 24 6 24 14 0 21
-17 29 -23 12z"/>
<path d="M8086 7831 c-3 -5 1 -11 9 -15 9 -3 15 0 15 9 0 16 -16 20 -24 6z"/>
<path d="M8168 7833 c7 -3 16 -2 19 1 4 3 -2 6 -13 5 -11 0 -14 -3 -6 -6z"/>
<path d="M8280 7832 c0 -5 7 -9 15 -9 8 0 12 4 9 9 -3 4 -9 8 -15 8 -5 0 -9
-4 -9 -8z"/>
<path d="M8012 7809 c-19 -30 -8 -34 12 -4 9 14 13 25 9 25 -5 0 -14 -9 -21
-21z"/>
<path d="M8380 7814 c0 -14 3 -15 18 -3 9 7 19 15 21 16 2 2 -5 3 -17 3 -14 0
-22 -6 -22 -16z"/>
<path d="M7831 7794 c0 -11 3 -14 6 -6 3 7 2 16 -1 19 -3 4 -6 -2 -5 -13z"/>
<path d="M7729 7774 c-13 -7 -18 -13 -11 -14 6 0 12 -4 12 -10 0 -5 -7 -7 -15
-4 -8 4 -15 1 -15 -6 0 -6 5 -8 11 -4 8 4 9 -1 5 -17 -7 -24 -7 -24 9 -4 9 11
14 27 12 37 -4 12 1 15 19 12 13 -2 24 0 24 5 0 16 -26 19 -51 5z"/>
<path d="M8119 7785 c-1 -3 -2 -11 -3 -17 -1 -7 -9 -12 -18 -12 -10 1 -14 -4
-11 -12 2 -7 12 -10 21 -7 14 4 15 3 2 -6 -8 -5 -11 -13 -8 -17 4 -4 3 -15 -2
-25 -12 -21 -31 -130 -31 -174 -1 -26 -2 -27 -9 -10 -7 17 -9 15 -9 -12 -1
-18 4 -33 10 -33 8 0 10 -15 7 -45 -3 -25 -2 -45 3 -45 5 0 9 -19 9 -42 1 -24
7 -60 14 -80 8 -23 10 -38 4 -38 -6 0 -8 -7 -4 -15 3 -8 1 -15 -4 -15 -6 0
-10 -5 -10 -11 0 -8 5 -8 15 1 8 7 12 16 9 21 -9 15 7 10 33 -11 14 -11 37
-20 52 -20 20 0 23 -2 11 -10 -13 -8 -13 -10 2 -10 9 0 20 4 23 10 7 11 64 2
83 -13 16 -12 16 1 -1 17 -7 7 -19 11 -27 9 -9 -3 -8 0 3 7 14 9 22 8 35 -2
15 -12 16 -11 4 4 -13 16 -8 43 6 34 4 -2 8 6 9 17 1 12 4 31 7 42 2 11 5 35
5 53 1 18 5 31 10 28 5 -4 7 11 5 31 -2 21 -5 90 -8 153 -3 73 -10 129 -20
152 -19 44 -20 51 -6 43 6 -3 10 -15 10 -26 0 -10 4 -19 10 -19 6 0 6 9 0 26
-12 31 -12 37 -1 30 4 -3 6 6 3 19 -2 14 -9 25 -14 25 -5 0 -7 -8 -3 -19 4
-13 0 -20 -15 -24 -11 -3 -20 -1 -20 4 0 8 -77 34 -95 32 -5 -1 -25 -6 -43
-12 -27 -8 -32 -8 -23 3 6 7 8 16 4 19 -8 8 -22 9 -24 2z m141 -85 c11 -6 24
-29 31 -53 16 -60 14 -322 -3 -372 -24 -71 -97 -86 -135 -28 -15 22 -19 55
-21 188 -5 217 12 275 79 275 17 0 39 -5 49 -10z"/>
<path d="M8453 7765 c-18 -20 -16 -25 7 -25 13 0 20 7 20 20 0 23 -10 25 -27
5z"/>
<path d="M8640 7745 c0 -8 4 -15 10 -15 5 0 7 7 4 15 -4 8 -8 15 -10 15 -2 0
-4 -7 -4 -15z"/>
<path d="M7756 7717 c3 -10 9 -15 12 -12 3 3 0 11 -7 18 -10 9 -11 8 -5 -6z"/>
<path d="M8046 7715 c-18 -13 -18 -14 3 -12 11 1 21 7 21 14 0 16 0 16 -24 -2z"/>
<path d="M8365 7721 c-3 -5 -1 -12 5 -16 5 -3 10 1 10 9 0 18 -6 21 -15 7z"/>
<path d="M8080 7704 c0 -8 5 -12 10 -9 6 4 8 11 5 16 -9 14 -15 11 -15 -7z"/>
<path d="M8663 7700 c1 -10 3 -17 6 -15 2 3 10 0 18 -6 9 -9 13 -8 13 0 0 6
-4 11 -10 11 -5 0 -10 7 -10 15 0 8 -4 15 -9 15 -6 0 -9 -9 -8 -20z"/>
<path d="M7732 7697 c-8 -10 -6 -13 7 -13 11 0 17 6 14 13 -3 7 -6 13 -8 13
-1 0 -7 -6 -13 -13z"/>
<path d="M8387 7697 c-3 -8 -1 -20 5 -28 8 -11 9 -10 4 4 -3 11 0 17 9 17 8 0
15 5 15 10 0 15 -27 12 -33 -3z"/>
<path d="M7675 7690 c-3 -6 1 -7 9 -4 18 7 21 14 7 14 -6 0 -13 -4 -16 -10z"/>
<path d="M7786 7688 c7 -11 34 -10 34 1 0 6 -9 9 -19 8 -11 0 -17 -5 -15 -9z"/>
<path d="M8356 7662 c7 -4 14 -16 17 -27 4 -15 5 -14 6 8 1 20 -4 27 -16 27
-12 0 -14 -3 -7 -8z"/>
<path d="M7656 7651 c-4 -7 -5 -15 -2 -18 9 -9 19 4 14 18 -4 11 -6 11 -12 0z"/>
<path d="M7644 7583 c3 -7 1 -25 -4 -39 -6 -14 -6 -23 -1 -19 5 3 12 -3 14
-12 3 -10 5 3 6 29 1 27 6 48 14 51 6 3 2 4 -11 4 -14 -1 -21 -6 -18 -14z"/>
<path d="M8010 7574 c0 -14 4 -23 10 -19 6 3 10 15 10 26 0 10 -4 19 -10 19
-5 0 -10 -12 -10 -26z"/>
<path d="M8441 7574 c0 -11 3 -14 6 -6 3 7 2 16 -1 19 -3 4 -6 -2 -5 -13z"/>
<path d="M8041 7564 c0 -11 3 -14 6 -6 3 7 2 16 -1 19 -3 4 -6 -2 -5 -13z"/>
<path d="M8667 7573 c-11 -10 -8 -63 3 -63 6 0 10 16 8 35 -2 39 -2 38 -11 28z"/>
<path d="M8370 7556 c0 -8 5 -18 10 -21 6 -3 10 1 10 9 0 8 -4 18 -10 21 -5 3
-10 -1 -10 -9z"/>
<path d="M8730 7541 c0 -13 26 -32 33 -24 8 7 -11 33 -24 33 -5 0 -9 -4 -9 -9z"/>
<path d="M8016 7515 c4 -8 7 -15 9 -15 2 0 5 7 9 15 3 9 0 15 -9 15 -9 0 -12
-6 -9 -15z"/>
<path d="M8372 7490 c0 -14 2 -19 5 -12 2 6 2 18 0 25 -3 6 -5 1 -5 -13z"/>
<path d="M7631 7484 c0 -11 3 -14 6 -6 3 7 2 16 -1 19 -3 4 -6 -2 -5 -13z"/>
<path d="M8390 7437 c0 -23 -4 -36 -10 -32 -6 4 -10 -5 -10 -19 0 -27 7 -30
34 -20 20 8 20 50 1 84 -14 25 -14 25 -15 -13z"/>
<path d="M8026 7445 c-3 -9 -6 -24 -5 -33 0 -9 5 -4 10 12 9 32 6 48 -5 21z"/>
<path d="M8042 7400 c0 -19 2 -27 5 -17 2 9 2 25 0 35 -3 9 -5 1 -5 -18z"/>
<path d="M8001 7393 c-1 -18 4 -33 9 -33 12 0 12 17 0 45 -7 17 -9 15 -9 -12z"/>
<path d="M7657 7375 c7 -47 10 -53 23 -37 6 7 7 9 3 6 -4 -3 -13 12 -20 33
l-12 38 6 -40z"/>
<path d="M8660 7356 c0 -9 7 -16 16 -16 9 0 14 5 12 12 -6 18 -28 21 -28 4z"/>
<path d="M8763 7353 c-7 -2 -13 -9 -13 -15 0 -7 5 -7 13 1 8 6 17 8 20 4 4 -3
7 -1 7 5 0 13 -7 14 -27 5z"/>
<path d="M8440 7341 c0 -5 5 -13 10 -16 6 -3 10 -2 10 4 0 5 -4 13 -10 16 -5
3 -10 2 -10 -4z"/>
<path d="M8384 7305 c3 -28 0 -35 -11 -31 -8 3 -11 1 -8 -5 4 -5 12 -8 17 -7
14 5 21 65 9 73 -5 3 -8 -11 -7 -30z"/>
<path d="M8721 7324 c0 -11 3 -14 6 -6 3 7 2 16 -1 19 -3 4 -6 -2 -5 -13z"/>
<path d="M8642 7295 c0 -16 2 -22 5 -12 2 9 2 23 0 30 -3 6 -5 -1 -5 -18z"/>
<path d="M8000 7301 c0 -6 4 -13 10 -16 6 -3 7 1 4 9 -7 18 -14 21 -14 7z"/>
<path d="M8468 7260 c-7 -43 -4 -59 8 -48 3 3 4 26 2 49 l-3 44 -7 -45z"/>
<path d="M8012 7237 c1 -18 3 -26 5 -19 3 6 8 10 12 8 4 -3 7 4 7 14 0 11 -6
22 -12 24 -9 3 -12 -6 -12 -27z"/>
<path d="M8350 7235 c-7 -9 -8 -15 -2 -15 5 0 12 7 16 15 3 8 4 15 2 15 -2 0
-9 -7 -16 -15z"/>
<path d="M8380 7225 c0 -8 -5 -15 -12 -15 -6 0 -8 -3 -5 -6 8 -8 37 14 37 27
0 5 -4 9 -10 9 -5 0 -10 -7 -10 -15z"/>
<path d="M8071 7221 c-8 -5 -9 -11 -3 -15 5 -3 12 1 16 9 6 17 6 18 -13 6z"/>
<path d="M8411 7214 c0 -11 3 -14 6 -6 3 7 2 16 -1 19 -3 4 -6 -2 -5 -13z"/>
<path d="M8640 7217 c0 -8 7 -23 16 -32 13 -12 14 -19 4 -30 -8 -9 -8 -15 -2
-15 5 0 15 14 21 30 9 27 8 30 -7 28 -9 -2 -17 2 -17 9 0 18 -15 28 -15 10z"/>
<path d="M7705 7180 c32 -39 48 -50 62 -38 13 11 6 41 -8 32 -5 -3 -7 -10 -4
-15 10 -15 -5 -10 -23 8 -16 16 -16 16 1 10 9 -3 17 -2 17 3 0 14 -18 21 -25
10 -5 -8 -12 -7 -23 2 -12 8 -10 5 3 -12z"/>
<path d="M7785 7190 c-3 -5 1 -10 9 -10 9 0 16 5 16 10 0 6 -4 10 -9 10 -6 0
-13 -4 -16 -10z"/>
<path d="M8095 7150 c-10 -11 -16 -20 -14 -21 27 -5 47 -4 42 4 -3 5 3 7 13 3
11 -3 26 -1 34 5 12 8 9 9 -9 4 -15 -5 -21 -3 -17 3 3 5 -1 13 -10 16 -21 8
-18 9 -39 -14z m35 5 c0 -2 -10 -9 -22 -15 -22 -11 -22 -10 -4 4 21 17 26 19
26 11z"/>
<path d="M8017 7153 c-18 -17 8 -28 43 -17 13 5 13 6 0 14 -18 11 -34 13 -43
3z"/>
<path d="M8234 7138 c-3 -5 -3 -12 0 -15 3 -4 6 -2 6 4 0 6 9 9 20 6 11 -3 20
-3 20 0 0 10 -40 15 -46 5z"/>
<path d="M8165 7117 c-17 -13 -17 -14 6 -21 23 -7 23 -8 4 -16 -11 -5 -15 -9
-8 -9 6 -1 20 -4 30 -7 15 -5 15 -4 3 5 -8 6 -11 11 -7 11 4 0 3 9 -3 19 -7
14 -6 21 3 24 6 3 7 6 1 6 -5 1 -18 -5 -29 -12z"/>
<path d="M8288 7113 c-5 -19 -2 -23 19 -23 14 0 22 4 18 10 -4 6 -10 8 -15 5
-5 -3 -10 3 -12 12 -3 15 -5 14 -10 -4z"/>
<path d="M8635 7121 c-3 -5 -2 -12 3 -15 5 -3 9 1 9 9 0 17 -3 19 -12 6z"/>
<path d="M7793 7103 c0 -7 4 -10 9 -7 4 3 8 1 8 -5 0 -5 -3 -11 -7 -14 -5 -2
-2 -2 6 0 8 2 11 -2 8 -11 -4 -10 -1 -13 9 -9 9 3 11 9 5 17 -14 17 -14 28 0
36 7 5 2 7 -13 7 -13 -1 -25 -7 -25 -14z"/>
<path d="M8578 7096 c15 -18 16 -19 1 -13 -13 4 -16 0 -15 -19 1 -29 12 -31
21 -3 4 11 16 24 28 29 21 8 21 9 -3 10 -19 0 -21 3 -11 9 10 7 7 9 -12 8 -24
-2 -25 -3 -9 -21z"/>
<path d="M8098 7093 c6 -2 18 -2 25 0 6 3 1 5 -13 5 -14 0 -19 -2 -12 -5z"/>
<path d="M7996 7081 c-3 -5 1 -11 9 -15 15 -6 29 7 18 18 -9 9 -21 8 -27 -3z"/>
<path d="M8220 7070 c0 -5 11 -10 24 -10 14 0 28 5 31 10 4 6 -7 10 -24 10
-17 0 -31 -4 -31 -10z"/>
<path d="M7899 7032 c9 -7 10 -11 2 -15 -7 -4 -8 -5 0 -4 15 3 13 21 -3 25
-10 3 -10 2 1 -6z"/>
<path d="M7970 7030 c0 -13 18 -22 24 -11 3 5 -1 11 -9 15 -8 3 -15 1 -15 -4z"/>
<path d="M8060 7030 c0 -5 17 -10 38 -10 27 0 33 3 22 10 -20 13 -60 13 -60 0z"/>
<path d="M8409 7008 l-12 -23 24 20 c13 11 26 21 28 22 2 2 -3 3 -12 3 -9 0
-22 -10 -28 -22z"/>
<path d="M7945 7000 c17 -4 23 -8 15 -10 -11 -1 -9 -4 5 -10 27 -12 43 -12 25
0 -13 9 -13 10 0 11 25 1 -22 18 -50 17 -23 0 -22 -1 5 -8z"/>
<path d="M8315 6990 c4 -6 11 -8 16 -5 14 9 11 15 -7 15 -8 0 -12 -5 -9 -10z"/>
<path d="M8118 6951 c12 -7 62 -4 62 5 0 2 -17 4 -37 4 -24 0 -33 -3 -25 -9z"/>
<path d="M8270 6949 c0 -5 5 -7 10 -4 6 3 10 8 10 11 0 2 -4 4 -10 4 -5 0 -10
-5 -10 -11z"/>
<path d="M6470 7935 c0 -6 138 -10 395 -10 302 0 397 -3 407 -12 6 -7 16 -13
22 -13 18 0 -29 29 -49 30 -17 1 -18 2 -3 8 10 4 -160 7 -377 7 -257 0 -395
-4 -395 -10z"/>
<path d="M7280 7938 c0 -4 14 -8 30 -8 17 0 30 2 30 4 0 2 -13 6 -30 8 -16 3
-30 1 -30 -4z"/>
<path d="M6535 7890 c-4 -6 -3 -16 3 -22 6 -6 12 -6 17 2 4 6 3 16 -3 22 -6 6
-12 6 -17 -2z"/>
<path d="M7370 7855 c7 -8 17 -15 22 -15 6 0 5 7 -2 15 -7 8 -17 15 -22 15 -6
0 -5 -7 2 -15z"/>
<path d="M7210 7850 c0 -5 9 -10 21 -10 11 0 17 5 14 10 -3 6 -13 10 -21 10
-8 0 -14 -4 -14 -10z"/>
<path d="M6530 7830 c0 -5 9 -10 20 -10 11 0 20 5 20 10 0 6 -9 10 -20 10 -11
0 -20 -4 -20 -10z"/>
<path d="M7005 7810 c-3 -5 1 -10 9 -10 8 0 18 5 21 10 3 6 -1 10 -9 10 -8 0
-18 -4 -21 -10z"/>
<path d="M6980 7770 c0 -5 6 -10 13 -10 6 -1 -1 -7 -18 -15 -16 -7 -24 -14
-18 -14 9 -1 12 -33 11 -122 l-1 -122 74 1 c63 1 76 4 92 23 9 12 20 19 23 16
3 -3 -4 -15 -15 -26 -15 -15 -17 -21 -7 -21 8 0 18 6 23 13 11 17 14 47 5 47
-4 0 -6 36 -6 80 1 63 -2 82 -15 92 -13 10 -14 10 -3 -2 24 -27 12 -34 -15 -8
-23 21 -37 25 -80 23 -62 -3 -90 10 -44 20 27 6 29 8 17 21 -17 16 -36 19 -36
4z m108 -112 c7 -7 12 -30 12 -53 0 -48 -13 -65 -52 -65 -28 0 -28 0 -28 65 0
65 0 65 28 65 15 0 33 -5 40 -12z"/>
<path d="M7125 7771 c-7 -12 12 -24 25 -16 5 3 15 -3 22 -15 16 -25 24 -26 24
-1 0 11 -3 18 -7 15 -4 -2 -12 3 -19 11 -14 17 -36 20 -45 6z"/>
<path d="M6520 7745 c-8 -9 -8 -15 -2 -15 12 0 26 19 19 26 -2 2 -10 -2 -17
-11z"/>
<path d="M7061 7746 c9 -9 69 -14 69 -5 0 5 -16 9 -37 9 -20 0 -34 -2 -32 -4z"/>
<path d="M6895 7730 c-4 -6 3 -10 14 -10 25 0 27 6 6 13 -8 4 -17 2 -20 -3z"/>
<path d="M7152 7723 c9 -11 16 -38 16 -67 0 -29 6 -52 14 -57 10 -7 10 -9 1
-9 -7 0 -13 -8 -13 -17 1 -16 2 -16 12 2 7 11 14 29 15 40 3 17 1 18 -8 5 -9
-12 -10 -11 -6 8 3 12 1 22 -5 22 -5 0 -6 10 -3 21 8 23 -12 69 -28 69 -6 0
-3 -8 5 -17z"/>
<path d="M6922 7664 c-12 -16 -27 -35 -32 -41 -6 -7 -7 -13 -2 -13 15 0 64 58
60 71 -2 7 -13 1 -26 -17z"/>
<path d="M6709 7663 c-4 -64 -3 -93 4 -93 4 0 7 25 7 55 0 30 -2 55 -5 55 -3
0 -6 -8 -6 -17z"/>
<path d="M6662 7590 c0 -19 2 -27 5 -17 2 9 2 25 0 35 -3 9 -5 1 -5 -18z"/>
<path d="M6900 7565 c1 -19 22 -55 32 -55 11 0 0 42 -15 57 -16 16 -17 16 -17
-2z"/>
<path d="M7186 7553 c-6 -14 -5 -15 5 -6 7 7 10 15 7 18 -3 3 -9 -2 -12 -12z"/>
<path d="M7525 7560 c-3 -5 -1 -10 4 -10 6 0 11 5 11 10 0 6 -2 10 -4 10 -3 0
-8 -4 -11 -10z"/>
<path d="M7176 7499 c-10 -19 -11 -29 -4 -27 10 4 32 58 23 58 -2 0 -10 -14
-19 -31z"/>
<path d="M7389 7503 c-9 -23 -7 -30 10 -44 11 -9 18 -19 16 -23 -3 -3 0 -2 7
4 9 7 7 14 -6 29 -15 17 -15 20 -2 34 8 8 12 17 9 21 -13 12 -24 5 -34 -21z"/>
<path d="M7456 7503 c-6 -14 -5 -15 5 -6 7 7 10 15 7 18 -3 3 -9 -2 -12 -12z"/>
<path d="M7500 7510 c0 -6 7 -10 15 -10 8 0 15 2 15 4 0 2 -7 6 -15 10 -8 3
-15 1 -15 -4z"/>
<path d="M7477 7497 c-3 -9 -14 -17 -24 -17 -13 0 -14 -3 -5 -12 10 -9 16 -9
28 4 9 9 14 22 12 29 -3 9 -6 8 -11 -4z"/>
<path d="M6975 7470 c-13 -5 -14 -9 -5 -9 8 0 24 4 35 9 13 5 14 9 5 9 -8 0
-24 -4 -35 -9z"/>
<path d="M7036 7468 c3 -4 12 -5 22 -2 9 3 6 -2 -8 -10 -17 -10 -20 -16 -10
-17 8 -1 28 -3 44 -5 16 -1 35 3 43 12 13 12 12 14 -7 14 -12 0 -19 4 -16 8 3
5 -12 8 -34 8 -21 0 -36 -4 -34 -8z"/>
<path d="M7490 7465 c-7 -9 -10 -18 -7 -21 3 -3 10 4 17 15 13 25 8 27 -10 6z"/>
<path d="M7172 7444 c-12 -13 -18 -24 -13 -24 12 0 41 29 41 41 0 12 -2 11
-28 -17z"/>
<path d="M6995 7450 c-4 -6 -12 -7 -18 -4 -7 4 -9 4 -5 -1 4 -4 0 -14 -10 -22
-9 -8 -11 -12 -4 -8 6 3 12 2 12 -3 0 -11 39 -4 41 7 0 3 2 14 4 24 4 18 -10
23 -20 7z"/>
<path d="M7431 7426 c-18 -10 -20 -15 -10 -19 8 -3 -3 -5 -23 -3 -21 2 -38 -1
-38 -5 0 -5 7 -9 15 -9 8 0 15 -6 15 -12 0 -8 3 -9 8 -3 4 6 19 16 33 22 14 6
26 18 26 27 0 9 -1 16 -1 16 -1 -1 -12 -7 -25 -14z"/>
<path d="M7108 7383 c7 -3 16 -2 19 1 4 3 -2 6 -13 5 -11 0 -14 -3 -6 -6z"/>
<path d="M6898 7363 c-18 -3 -25 -9 -21 -18 3 -10 10 -12 21 -6 10 4 23 7 30
5 7 -1 8 0 2 3 -5 2 -8 9 -4 14 3 5 4 8 2 8 -2 -1 -15 -4 -30 -6z"/>
<path d="M6660 7295 c0 -8 2 -15 4 -15 2 0 6 7 10 15 3 8 1 15 -4 15 -6 0 -10
-7 -10 -15z"/>
<path d="M6885 7290 c-3 -5 -1 -10 4 -10 6 0 11 5 11 10 0 6 -2 10 -4 10 -3 0
-8 -4 -11 -10z"/>
<path d="M6907 7276 c-4 -10 1 -12 14 -9 23 6 24 9 5 16 -8 3 -17 0 -19 -7z"/>
<path d="M6661 7232 c-1 -36 22 -42 26 -6 3 18 2 18 -6 -1 -8 -18 -9 -17 -13
10 l-5 30 -2 -33z"/>
<path d="M7103 7120 c0 -41 2 -58 4 -37 2 20 2 54 0 75 -2 20 -4 3 -4 -38z"/>
<path d="M7057 7023 c-2 -4 -1 -17 3 -27 6 -19 7 -19 14 -1 7 19 -8 44 -17 28z"/>
<path d="M6500 6980 c34 -11 60 -11 35 0 -11 5 -29 8 -40 8 -16 0 -15 -2 5 -8z"/>
<path d="M8852 8008 c-8 -8 -12 -59 -12 -163 0 -165 3 -175 55 -175 56 0 56 0
53 -211 l-3 -194 -40 -5 c-66 -9 -65 -5 -65 -180 0 -147 1 -160 19 -170 13 -6
307 -10 877 -10 780 0 859 2 876 17 16 14 18 34 18 163 0 164 -2 169 -68 179
l-37 6 -3 194 c-3 211 -3 211 54 211 51 0 54 10 54 175 0 104 -4 155 -12 163
-17 17 -689 17 -706 0 -8 -8 -12 -59 -12 -163 0 -163 4 -175 51 -175 61 0 59
6 59 -211 l0 -199 -35 0 -35 0 0 63 c0 94 -6 97 -171 97 -93 0 -140 -4 -151
-12 -9 -8 -18 -36 -21 -70 -3 -32 -8 -62 -12 -68 -3 -5 -33 -10 -66 -10 l-59
0 0 199 c0 217 -2 211 60 211 19 0 33 7 40 19 13 26 13 286 0 312 -10 18 -25
19 -353 19 -254 0 -346 -3 -355 -12z m63 -54 c-9 -10 -12 -19 -7 -23 5 -3 12
-15 15 -26 4 -12 5 -7 4 11 -2 17 3 36 10 42 9 9 91 12 291 12 l279 0 0 -125
1 -125 -28 0 c-16 0 -37 3 -47 7 -16 6 -15 8 7 13 l25 6 -26 5 c-22 5 -26 2
-25 -15 1 -12 -3 -21 -9 -22 -19 -2 -45 -16 -45 -25 0 -4 7 -5 17 -2 11 4 14
3 9 -5 -4 -7 -3 -12 2 -12 5 0 15 11 22 25 7 14 17 25 22 25 9 0 -30 -60 -47
-72 -6 -5 -5 -12 3 -20 9 -9 12 -64 12 -201 l0 -188 -22 5 c-13 3 -17 3 -10 0
6 -3 12 -17 12 -30 0 -14 3 -23 8 -21 4 3 62 7 129 9 97 2 119 6 111 16 -8 9
-7 11 4 7 10 -4 14 1 15 17 0 13 1 48 2 78 3 52 3 53 12 23 12 -41 24 -43 16
-3 l-6 30 102 0 102 0 1 -205 c0 -113 -3 -205 -8 -205 -4 0 -8 19 -8 42 0 23
-3 38 -7 35 -3 -4 -6 -23 -5 -42 l1 -35 -479 0 -480 0 0 120 0 120 33 2 c17 0
50 2 72 2 32 1 41 5 41 19 0 9 -4 17 -8 17 -4 0 -8 5 -8 11 0 5 4 8 8 5 5 -3
7 18 4 46 -3 41 -2 49 9 42 12 -6 12 -5 1 8 -10 12 -12 49 -10 137 2 66 -1
116 -5 112 -4 -4 -7 -81 -5 -169 2 -117 0 -163 -9 -166 -9 -4 -12 49 -12 207
-1 199 -2 213 -21 229 -13 10 -16 18 -8 20 6 2 12 11 14 20 1 12 -4 15 -19 12
-11 -2 -27 2 -36 9 -12 10 -14 9 -8 -5 3 -9 0 -21 -7 -28 -18 -14 -30 15 -16
40 7 13 7 21 0 25 -6 4 -10 43 -9 91 1 76 3 84 21 84 18 0 18 -1 3 -16z m1665
5 c0 -5 -4 -7 -10 -4 -5 3 -10 1 -10 -4 0 -14 -477 -15 -482 -2 -1 5 -9 3 -16
-5 -11 -12 24 -14 242 -14 140 0 256 -3 259 -7 2 -5 2 -2 0 5 -1 7 2 10 7 7 6
-3 10 -46 10 -94 l0 -87 -32 2 c-47 2 -50 3 -43 14 3 6 -4 10 -17 10 -17 0
-19 -3 -9 -9 7 -5 10 -14 7 -20 -5 -7 1 -10 15 -8 12 1 24 -4 26 -10 3 -7 0
-13 -7 -13 -6 0 -8 5 -5 10 3 6 1 10 -4 10 -6 0 -11 -6 -11 -14 0 -15 -21 -26
-51 -26 -11 0 -22 -7 -25 -15 -4 -8 -9 -13 -13 -11 -3 2 -7 -12 -8 -32 l-2
-37 17 38 c9 20 20 37 25 37 10 0 -3 -44 -14 -48 -5 -2 -9 -8 -9 -14 0 -6 6
-5 15 2 9 7 19 9 23 5 4 -4 1 -10 -7 -13 -9 -3 -10 -7 -2 -11 6 -4 11 -68 11
-179 2 -163 3 -174 23 -195 12 -12 28 -23 35 -23 6 -1 23 -2 37 -2 l25 -2 0
-120 0 -120 -315 0 -315 0 0 120 c0 117 1 120 23 122 12 0 27 2 32 3 30 7 41
5 38 -6 -2 -5 2 -9 7 -9 6 0 10 15 11 33 0 27 2 29 9 12 7 -16 9 -17 9 -3 1 9
-3 19 -8 23 -6 3 -5 22 3 49 8 26 10 49 5 59 -5 9 -8 83 -6 166 2 83 0 148 -5
145 -4 -3 -8 -2 -9 3 0 4 -2 16 -4 26 -2 9 1 15 6 11 5 -3 6 -11 3 -17 -5 -9
-4 -9 6 0 10 9 8 16 -8 33 -15 16 -22 18 -27 9 -6 -8 -4 -10 5 -4 8 5 11 3 8
-5 -4 -14 -38 -23 -38 -11 0 4 -12 7 -27 6 l-28 0 -3 123 -3 122 316 0 c215 0
315 -3 315 -11z m-1616 -230 c-27 -11 -34 -10 -34 0 0 11 31 20 44 13 5 -3 1
-9 -10 -13z m1614 3 c2 -7 -5 -12 -15 -12 -11 0 -20 6 -20 14 0 16 29 14 35
-2z m-117 -79 c-12 -20 -14 -14 -5 12 4 9 9 14 11 11 3 -2 0 -13 -6 -23z
m-1446 -423 c3 -5 3 -10 -2 -11 -4 0 -16 -2 -26 -4 -15 -3 -16 -1 -6 11 14 16
25 18 34 4z"/>
<path d="M9475 7942 c-5 -4 -11 -18 -12 -32 -1 -15 0 -18 3 -7 3 9 10 15 15
12 5 -4 9 3 9 14 0 23 -1 24 -15 13z"/>
<path d="M9078 7933 c67 -2 177 -2 245 0 67 1 12 3 -123 3 -135 0 -190 -2
-122 -3z"/>
<path d="M9463 7825 c0 -33 2 -45 4 -27 2 18 2 45 0 60 -2 15 -4 0 -4 -33z"/>
<path d="M9480 7856 c0 -9 5 -16 10 -16 6 0 10 4 10 9 0 6 -4 13 -10 16 -5 3
-10 -1 -10 -9z"/>
<path d="M9274 7839 c-7 -12 15 -31 28 -23 9 6 -1 34 -12 34 -5 0 -12 -5 -16
-11z"/>
<path d="M9425 7830 c-3 -5 -1 -10 5 -10 6 0 8 -5 4 -12 -4 -7 -3 -8 4 -4 6 4
9 13 5 21 -6 18 -10 19 -18 5z"/>
<path d="M9026 7822 c-3 -5 1 -9 9 -9 8 0 12 4 9 9 -3 4 -7 8 -9 8 -2 0 -6 -4
-9 -8z"/>
<path d="M9357 7805 c5 -25 17 -32 27 -16 3 4 -3 16 -13 25 -17 16 -18 15 -14
-9z"/>
<path d="M8940 7811 c0 -9 30 -23 60 -26 8 -2 22 -5 31 -9 10 -5 16 -2 16 8 0
9 -9 15 -21 15 -27 -1 -54 5 -62 14 -10 10 -24 9 -24 -2z"/>
<path d="M8921 7794 c0 -11 3 -14 6 -6 3 7 2 16 -1 19 -3 4 -6 -2 -5 -13z"/>
<path d="M9100 7789 c0 -24 23 -21 28 4 2 10 -3 17 -12 17 -10 0 -16 -9 -16
-21z"/>
<path d="M9330 7775 c-7 -9 -20 -13 -29 -10 -11 4 -11 1 3 -14 19 -21 41 -19
32 4 -2 7 1 18 7 24 6 6 8 11 5 11 -3 0 -11 -7 -18 -15z"/>
<path d="M9045 7751 c-3 -6 -15 -8 -27 -6 -17 4 -19 2 -10 -7 16 -16 15 -31
-1 -25 -11 4 -11 -2 -3 -28 6 -19 14 -31 19 -28 5 3 6 -5 3 -18 -6 -22 -6 -22
5 -5 9 14 9 24 1 37 -8 12 -8 20 -2 24 6 4 8 11 4 16 -3 6 2 19 12 30 9 10 14
19 11 19 -3 0 -8 -4 -12 -9z"/>
<path d="M9374 7739 c0 -13 3 -15 13 -7 7 6 13 14 13 18 0 3 -6 7 -13 7 -7 0
-13 -8 -13 -18z"/>
<path d="M9069 7738 c-7 -23 -4 -38 7 -42 16 -6 28 10 20 29 -4 12 -24 21 -27
13z"/>
<path d="M9285 7691 c-3 -5 -1 -12 5 -16 5 -3 10 1 10 9 0 18 -6 21 -15 7z"/>
<path d="M9300 7590 c0 -16 5 -30 10 -30 6 0 10 14 10 30 0 17 -4 30 -10 30
-5 0 -10 -13 -10 -30z"/>
<path d="M9095 7360 c-3 -6 1 -7 9 -4 18 7 21 14 7 14 -6 0 -13 -4 -16 -10z"/>
<path d="M9371 7328 c0 -26 3 -49 7 -52 4 -2 6 12 4 32 -6 62 -10 69 -11 20z"/>
<path d="M9317 7335 c3 -8 9 -12 14 -9 12 7 11 11 -5 17 -10 4 -13 1 -9 -8z"/>
<path d="M9780 7275 c0 -43 4 -75 10 -75 6 0 10 32 10 75 0 43 -4 75 -10 75
-6 0 -10 -32 -10 -75z"/>
<path d="M9060 7306 c0 -23 16 -27 17 -5 1 10 -2 19 -8 19 -5 0 -9 -6 -9 -14z"/>
<path d="M9678 7281 c-10 -10 -18 -22 -18 -27 0 -5 5 -2 10 6 9 13 11 13 20 0
8 -12 10 -9 10 13 0 31 0 31 -22 8z"/>
<path d="M9105 7269 c-8 -25 9 -47 20 -28 5 8 4 10 -4 5 -8 -6 -10 0 -5 18 7
31 -2 35 -11 5z"/>
<path d="M9665 7230 c3 -5 8 -10 11 -10 2 0 4 5 4 10 0 6 -5 10 -11 10 -5 0
-7 -4 -4 -10z"/>
<path d="M8923 7115 c0 -44 2 -61 4 -37 2 23 2 59 0 80 -2 20 -4 1 -4 -43z"/>
<path d="M8952 7120 c0 -14 2 -19 5 -12 2 6 2 18 0 25 -3 6 -5 1 -5 -13z"/>
<path d="M9773 7035 c-3 -9 -3 -19 1 -22 3 -4 6 1 6 10 0 8 6 18 13 20 9 4 9
6 -1 6 -7 1 -15 -6 -19 -14z"/>
<path d="M8922 7000 c0 -19 2 -27 5 -17 2 9 2 25 0 35 -3 9 -5 1 -5 -18z"/>
<path d="M9967 7954 c-8 -8 3 -34 15 -34 6 0 6 6 -1 14 -10 12 -8 15 11 19 21
4 21 4 2 6 -11 0 -23 -2 -27 -5z"/>
<path d="M10033 7909 c-16 -16 -17 -49 -3 -49 13 0 23 24 18 45 -2 13 -5 14
-15 4z"/>
<path d="M9975 7900 c3 -5 8 -10 11 -10 2 0 4 5 4 10 0 6 -5 10 -11 10 -5 0
-7 -4 -4 -10z"/>
<path d="M9980 7870 c-1 -3 -3 -20 -5 -39 -2 -22 0 -29 6 -20 7 11 9 9 10 -6
0 -18 1 -18 12 3 7 16 7 26 0 30 -5 4 -13 14 -16 22 -3 8 -6 13 -7 10z"/>
<path d="M10556 7857 c3 -10 9 -15 12 -12 3 3 0 11 -7 18 -10 9 -11 8 -5 -6z"/>
<path d="M10050 7829 c0 -5 5 -7 10 -4 6 3 10 8 10 11 0 2 -4 4 -10 4 -5 0
-10 -5 -10 -11z"/>
<path d="M10400 7790 c0 -5 5 -10 11 -10 5 0 7 5 4 10 -3 6 -8 10 -11 10 -2 0
-4 -4 -4 -10z"/>
<path d="M10006 7772 c-3 -6 0 -13 6 -16 7 -3 4 -5 -7 -5 -34 2 -45 -1 -45
-10 0 -14 59 -7 65 8 7 17 -10 37 -19 23z"/>
<path d="M10404 7753 c4 -7 2 -13 -3 -13 -6 0 -11 -4 -11 -8 0 -5 6 -9 14 -9
15 0 16 21 1 34 -4 4 -5 2 -1 -4z"/>
<path d="M10420 7425 c0 -98 2 -176 5 -173 8 8 10 336 2 344 -4 4 -7 -73 -7
-171z"/>
<path d="M10430 7229 c-7 -11 -9 -23 -6 -26 3 -3 8 2 12 11 3 9 10 13 15 10 5
-3 7 -9 4 -14 -3 -5 4 -8 15 -7 19 1 19 3 6 13 -9 6 -16 16 -16 23 0 18 -18
13 -30 -10z"/>
<path d="M9969 7095 c-3 -55 -2 -107 2 -115 7 -12 8 -10 9 6 0 18 5 21 32 18
17 -2 28 -1 24 4 -4 4 -18 7 -29 7 -21 0 -22 6 -27 90 l-5 90 -6 -100z"/>
<path d="M6880 6863 c-211 -32 -352 -165 -396 -371 -21 -100 -20 -1266 1
-1367 40 -191 171 -326 353 -364 76 -16 214 -14 286 5 128 33 213 96 279 207
59 98 72 171 72 417 l0 215 -192 3 -193 2 0 -187 c0 -201 -8 -254 -43 -278
-22 -15 -92 -20 -122 -9 -44 17 -45 28 -45 679 l0 617 29 29 c21 21 39 29 65
29 97 0 116 -42 116 -255 l0 -155 196 0 197 0 -6 193 c-3 127 -10 210 -21 246
-52 184 -170 298 -351 336 -65 14 -166 17 -225 8z m273 -71 c115 -41 205 -133
242 -247 20 -66 35 -196 35 -317 l0 -98 -144 0 -144 0 -4 148 c-3 168 -17 210
-79 244 -49 27 -139 21 -175 -13 -56 -52 -54 -27 -54 -699 0 -688 -2 -671 64
-711 42 -26 130 -25 173 1 60 36 67 64 71 273 l4 188 141 -3 142 -3 3 -140 c5
-241 -22 -368 -100 -466 -45 -57 -107 -100 -182 -126 -78 -27 -281 -25 -359 4
-117 44 -190 120 -239 249 l-23 59 0 670 c0 630 1 673 19 725 52 151 150 242
300 276 84 19 234 12 309 -14z"/>
<path d="M7810 6836 c0 -2 -74 -459 -165 -1016 -91 -557 -165 -1019 -165
-1026 0 -11 37 -14 190 -14 105 0 190 1 191 3 0 1 13 85 27 187 l27 185 136 3
135 3 17 -128 c10 -71 23 -156 28 -190 l11 -63 204 0 204 0 -5 23 c-3 12 -43
258 -90 547 -47 289 -120 741 -163 1005 l-78 480 -252 3 c-139 1 -252 1 -252
-2z m464 -73 c3 -16 73 -444 156 -953 83 -509 153 -937 156 -952 l6 -28 -155
0 -154 0 -22 158 c-12 86 -24 172 -27 190 l-6 32 -179 0 c-140 0 -179 -3 -179
-13 0 -7 -11 -90 -25 -185 -14 -95 -25 -174 -25 -177 0 -3 -63 -5 -140 -5
-128 0 -140 2 -140 18 0 16 82 522 267 1655 l47 287 207 0 207 0 6 -27z"/>
<path d="M7981 5987 c-34 -254 -65 -472 -68 -484 l-5 -23 142 0 142 0 -5 33
c-4 17 -34 232 -68 477 -34 245 -65 448 -68 452 -3 4 -35 -201 -70 -455z m112
-174 c21 -148 37 -271 37 -275 0 -5 -37 -8 -81 -8 l-82 0 6 33 c3 17 20 141
38 275 18 133 36 242 39 242 3 0 22 -120 43 -267z"/>
<path d="M8690 5810 l0 -1030 205 0 205 0 0 425 0 425 198 2 197 3 3 188 2
187 -200 0 -200 0 0 225 0 225 253 2 252 3 3 188 2 187 -460 0 -460 0 0 -1030z
m870 840 l0 -140 -255 0 -255 0 0 -275 0 -275 200 0 200 0 0 -140 0 -140 -200
0 -200 0 0 -425 0 -425 -155 0 -155 0 0 980 0 980 410 0 410 0 0 -140z"/>
<path d="M9660 5810 l0 -1030 470 0 470 0 0 185 0 185 -265 0 -265 0 0 255 0
255 210 0 210 0 0 190 0 190 -210 0 -209 0 -3 200 c-2 110 -1 205 0 210 2 6
102 10 268 10 l264 0 0 190 0 190 -470 0 -470 0 0 -1030z m890 840 l0 -140
-265 0 -265 0 0 -260 0 -260 210 0 210 0 0 -140 0 -140 -210 0 -210 0 0 -305
0 -305 265 0 265 0 0 -135 0 -135 -420 0 -420 0 0 980 0 980 420 0 420 0 0
-140z"/>
</g>
</svg>
